<svg width="23" height="26" viewBox="0 0 23 26" fill="none" xmlns="http://www.w3.org/2000/svg">
<path d="M22.2375 24.914L20.6554 7.29476C20.6122 6.81359 20.2089 6.44503 19.7259 6.44503H16.4632V4.97354C16.4632 2.23113 14.2322 0 11.4899 0C8.74778 0 6.51702 2.23113 6.51702 4.97354V6.44503H3.25214C2.7691 6.44503 2.36583 6.81359 2.32265 7.29476L0.734322 24.9833C0.71093 25.2443 0.798279 25.503 0.975092 25.6964C1.1519 25.8898 1.40188 25.9999 1.6638 25.9999H21.3143C21.3151 25.9999 21.3161 25.9999 21.3168 25.9999C21.8323 25.9999 22.25 25.582 22.25 25.0667C22.2499 25.0148 22.2457 24.9636 22.2375 24.914ZM8.38345 4.97354C8.38345 3.26028 9.77705 1.86643 11.4901 1.86643C13.2032 1.86643 14.5969 3.26028 14.5969 4.97354V6.44503H8.38345V4.97354ZM2.68462 24.1336L4.10534 8.31146H6.51702V9.9803C6.51702 10.4957 6.93473 10.9135 7.45024 10.9135C7.96574 10.9135 8.38345 10.4957 8.38345 9.9803V8.31146H14.5969V9.9803C14.5969 10.4957 15.0146 10.9135 15.5301 10.9135C16.0456 10.9135 16.4634 10.4957 16.4634 9.9803V8.31146H18.8728L20.2935 24.1336H2.68462Z" fill="black"/>
</svg>
