<?xml version="1.0" encoding="UTF-8"?>
<svg width="28px" height="28px" viewBox="0 0 28 28" version="1.1" xmlns="http://www.w3.org/2000/svg" xmlns:xlink="http://www.w3.org/1999/xlink">
    <!-- Generator: sketchtool 55.1 (78136) - https://sketchapp.com -->
    <title>A0A0F154-607C-4005-882F-720DDB57AB9C</title>
    <desc>Created with sketchtool.</desc>
    <defs>
        <linearGradient x1="0.517474585%" y1="100%" x2="99.4825254%" y2="0%" id="linearGradient-1">
            <stop stop-color="#777777" offset="0%"></stop>
            <stop stop-color="#6e6e6e" offset="100%"></stop>
        </linearGradient>
    </defs>
    <g id="Desktop" stroke="none" stroke-width="1" fill="none" fill-rule="evenodd">
        <g id="UI-/-Desktop--2" transform="translate(-224.000000, -776.000000)">
            <g id="Molecules-/-Features" transform="translate(150.000000, 745.000000)">
                <g id="Atoms-/-Icons-/-Shipping">
                    <g transform="translate(68.000000, 25.000000)">
                        <rect id="Rectangle" x="0" y="0" width="40" height="40"></rect>
                        <g id="Group-3" transform="translate(6.000000, 6.000000)" fill="url(#linearGradient-1)">
                            <path d="M20.7283711,5.77319588 L20.7282528,5.77310062 C23.2032219,5.7121934 25.5238157,6.9749934 26.8137786,9.08806969 C28.1048557,11.2010594 28.170266,13.8419501 26.986299,16.0159047 C25.8013505,18.1899748 23.5472639,19.5678808 21.0722371,19.6289392 L18.7629588,19.6289392 C18.1247608,19.6289392 17.6083196,19.1123295 17.6083196,18.4741315 C17.6083196,17.8359336 18.1247608,17.3194924 18.7629588,17.3194924 L21.0722371,17.3194924 C22.7217546,17.3194924 24.2473505,16.4388491 25.0716186,15.010214 C25.8970124,13.5816367 25.8970124,11.8202924 25.0716186,10.3916573 C24.2474948,8.96302227 22.7218701,8.08237897 21.0722371,8.08237897 C20.7395856,8.08125031 20.4080887,8.11507835 20.0822206,8.18386021 C19.7698907,8.2515134 19.4428854,8.1872433 19.1801588,8.00570227 C18.9163035,7.82416412 18.7404029,7.54116206 18.6941711,7.22542598 C18.5227649,5.65370227 17.7143155,4.22053526 16.4581835,3.26097237 C15.2010701,2.30139505 13.6054165,1.89885031 12.0437093,2.14804454 C10.4820598,2.39724454 9.09175876,3.27676206 8.19645155,4.58023423 C7.30003876,5.88266722 6.97868247,7.49616 7.30567629,9.0432033 C7.36318887,9.38145485 7.26621072,9.72763299 7.04294969,9.98810227 C6.8129167,10.2395423 6.48930021,10.3861266 6.14876825,10.3917641 L6.00669278,10.3917641 C4.09440825,10.4064858 2.55527682,11.9704445 2.57106305,13.8828157 C2.57781769,14.801793 2.9499299,15.6801559 3.6050433,16.3240115 C4.25903093,16.968993 5.14305155,17.3264231 6.06202887,17.3196569 L9.52594639,17.3196569 C10.1641443,17.3196569 10.6805856,17.8360981 10.6805856,18.4742961 C10.6805856,19.112494 10.1641443,19.6289392 9.52594639,19.6289392 L6.06202887,19.6289392 C4.13609072,19.6311868 2.33537233,18.6716239 1.26190429,17.0727085 C0.189590887,15.4738219 -0.0156462268,13.444226 0.716164082,11.6626466 C1.44820532,9.88103835 3.0199299,8.58094351 4.90750515,8.19757443 L4.90750515,8.08256082 C4.91414433,5.47769485 6.17711753,3.03543093 8.29810309,1.52334433 C10.4188866,0.011257732 13.1397649,-0.386775258 15.6046598,0.456659794 C18.0695546,1.29896907 19.9773938,3.27900206 20.7283711,5.77319588 Z M14.1443299,12.7010309 C14.4510309,12.7010309 14.744188,12.8228194 14.9606887,13.0393142 C15.1771893,13.2558091 15.2989691,13.548972 15.2989691,13.855673 L15.2989691,23.7682503 L16.7918887,22.2764565 C17.2428907,21.8242998 17.9735753,21.8242998 18.4246062,22.2764565 C18.8767629,22.7274586 18.8767629,23.4581431 18.4246062,23.909174 L14.9606887,27.3730904 C14.7441938,27.5907168 14.4510309,27.7124966 14.1443299,27.7124966 C13.8376289,27.7124966 13.544466,27.5907139 13.3279711,27.3730904 L9.86405361,23.909174 C9.41189691,23.458172 9.41189691,22.7274874 9.86405361,22.2764565 C10.3150557,21.8242998 11.0457402,21.8242998 11.4967711,22.2764565 L11.4967711,22.2753278 L12.9896907,23.7682474 L12.9896907,13.8556701 C12.9896907,13.2174722 13.506132,12.7010309 14.1443299,12.7010309 Z" id="Combined-Shape"></path>
                        </g>
                    </g>
                </g>
            </g>
        </g>
    </g>
</svg>
