<?xml version="1.0" encoding="UTF-8"?>
<svg width="24px" height="23px" viewBox="0 0 24 23" version="1.1" xmlns="http://www.w3.org/2000/svg" xmlns:xlink="http://www.w3.org/1999/xlink">
    <!-- Generator: Sketch 53.1 (72631) - https://sketchapp.com -->
    <title>Fill 1</title>
    <desc>Created with Sketch.</desc>
    <defs>
        <linearGradient x1="0%" y1="95.9201389%" x2="100%" y2="4.07986111%" id="linearGradient-1">
            <stop stop-color="#1480C8" offset="0%"></stop>
            <stop stop-color="#04A3FF" offset="100%"></stop>
        </linearGradient>
    </defs>
    <g id="Symbols" stroke="none" stroke-width="1" fill="none" fill-rule="evenodd">
        <g id="Organisms-/-Blog-/-Share" transform="translate(-1.000000, 0.000000)" fill="url(#linearGradient-1)">
            <g id="UI-/-Elements-/-Share">
                <path d="M14.0582652,0 C12.9686964,0.00510454273 12.1176599,0.598300499 11.949954,1.41301479 C11.939538,1.46406283 11.9332874,1.51613283 11.9332874,1.56820282 L11.9332874,4.25638623 L9.29996498,9.63170757 C9.15100827,9.48672862 8.94268647,9.40198746 8.73330067,9.40300941 L3.93332061,9.40300941 C3.76144666,9.40607266 3.54582889,9.42342759 3.3999895,9.45507941 C2.1864484,9.67663172 1.05938642,10.7047384 1,12.2546061 L1,20.1385502 C1.01874979,20.9930971 1.33333195,21.7486374 1.88332966,22.2621759 C2.42708687,22.7706176 3.16873712,23.0187093 3.93332061,22.9972771 L6.5999762,22.9972771 C7.52183904,23.0350528 8.32183571,22.6766815 8.80828703,22.1151556 C9.0082862,21.8844162 9.13015236,21.6199914 9.24161856,21.3555641 C9.34995144,21.3902766 9.45724166,21.4515363 9.56663054,21.478081 C10.1374548,21.6179554 10.7072391,21.6720667 11.0916375,21.6904435 L20.4665319,21.6904435 C20.519657,21.6904435 20.5727821,21.684317 20.6248646,21.674108 C21.1800623,21.5628221 21.7050734,21.2994089 22.1581916,20.9390068 C22.6113097,20.5775853 23.0248546,20.1079308 23.1248542,19.4524688 C23.1279795,19.4340919 23.1311049,19.4146931 23.1331875,19.3952942 C23.170686,18.8848138 23.0925637,18.4396758 22.9498549,18.0721121 C23.0436039,18.0128963 23.1425635,17.9679721 23.2331871,17.8924207 C23.5154793,17.6565767 23.7529716,17.3033204 23.8665178,16.8979889 C23.9102669,16.7550538 23.9258936,16.6213033 23.9331842,16.4875606 C23.9456855,16.1159196 23.9008937,15.8188211 23.8415179,15.5564324 C24.0300585,15.4431053 24.215463,15.3185445 24.383169,15.1480429 C24.6435839,14.8836155 24.8446337,14.5242327 24.9362867,14.1168625 C24.9800358,13.9504434 24.9956624,13.752383 24.9998278,13.5961626 L24.9998278,13.5716592 C25.0029531,12.9100812 24.7914953,12.3475099 24.4581767,11.9707721 C24.450886,11.9626043 24.4404674,11.9626043 24.4331768,11.9544366 C24.4446354,11.9411642 24.4550514,11.9360597 24.46651,11.9217654 C24.7852553,11.5256341 25.0019211,10.9385724 24.9998411,10.2065293 L24.9998411,10.1901937 C25.014425,9.05078028 24.0237918,8.03899353 22.602971,7.86850232 C22.4019292,7.84910349 22.2029727,7.84399895 22.0331867,7.83685311 L16.6414758,7.83685311 C16.8883495,6.62088465 17.170647,5.39161249 17.2664866,3.97250779 L17.2664866,3.93166883 C17.3008624,1.49257038 15.6789998,0.0816988205 14.1080997,0.00198117941 C14.0914331,0.000959225387 14.0747665,0.000959225387 14.0580999,0.00198117941 L14.0582652,0 Z M14.0665985,1.56821589 C14.8009688,1.62130523 15.6811785,2.11547096 15.6665919,3.88073318 C15.558259,5.45200709 15.1499273,6.87210499 14.8749152,8.48841284 C14.7978328,8.93765442 15.2020071,9.40524412 15.6665919,9.40320544 L22.0998985,9.40320544 C23.1613607,9.36134453 23.406133,9.86980194 23.3998931,10.1709778 L23.3998931,10.1954812 C23.4030184,10.6702324 23.3103094,10.82133 23.2082272,10.946918 C23.106145,11.0725059 22.928015,11.1837839 22.6415629,11.4043143 C22.4269798,11.5717527 22.3113509,11.8525104 22.3457241,12.1190025 C22.38114,12.3854685 22.5655152,12.6284636 22.8165488,12.7366966 C23.0300893,12.8255204 23.1717474,12.9102615 23.2498804,12.9980659 C23.3280054,13.0858703 23.4050877,13.1971562 23.3998797,13.5779922 L23.3998797,13.6024955 C23.4061304,13.8475293 23.3550879,13.9363426 23.2332138,14.0598918 C23.1113396,14.1834307 22.8800952,14.3161566 22.5915631,14.4192747 C22.1655115,14.5693581 21.9436458,15.1186467 22.1499116,15.5137587 C22.3072016,15.8159539 22.3519934,15.8180187 22.3332442,16.4122157 C22.3197029,16.6021162 22.299911,16.6082427 22.1915781,16.6981014 C22.0832452,16.7889691 21.8405395,16.9074008 21.5082476,17.0329678 C21.2488727,17.1309813 21.0499028,17.3719377 21.0061697,17.6414617 C20.9624205,17.9109857 21.0749187,18.1999295 21.2915818,18.3724855 C21.3717895,18.4368059 21.5655274,18.6307916 21.5332475,19.2382714 C21.5165809,19.3148448 21.3957494,19.5241572 21.1499158,19.7201841 C20.9061674,19.9141698 20.5801315,20.0662894 20.3415991,20.1203928 L11.1749705,20.1203928 C10.8749718,20.1060986 10.3541473,20.0560725 9.94996228,19.957037 C9.76975503,19.9131348 9.62809695,19.8549383 9.53329735,19.8100168 L9.53329735,11.9096065 L9.97494885,11.6237207 C10.0957803,11.5471474 10.1947399,11.4389248 10.258281,11.3133447 L13.4582677,4.77911179 C13.5093102,4.67190855 13.5353501,4.55347689 13.5332674,4.43606457 L13.5332674,1.70710755 C13.5353501,1.69689846 13.5780592,1.57029639 14.0665985,1.5682551 L14.0665985,1.56821589 Z M3.90824072,10.9714997 L7.93329066,10.9714997 C7.92600002,14.106886 7.93329066,17.3912529 7.93329066,20.1050505 C7.91037342,20.5175174 7.78016596,20.8840617 7.59163875,21.101521 C7.40101554,21.3220513 7.17497381,21.4568264 6.64164269,21.4282326 L3.90832072,21.4282326 C3.5020824,21.4425269 3.20624363,21.3261365 2.99165786,21.1260374 C2.78020007,20.9279691 2.61456609,20.6247311 2.59997949,20.121386 L2.59997949,12.3108868 C2.63852066,11.3001194 3.32498981,10.9550335 3.90829405,10.9713691 L3.90824072,10.9714997 Z M5.26658174,16.9840395 C4.3926387,16.9840395 3.66658839,17.6956697 3.66658839,18.5522554 C3.66658839,19.408841 4.3926387,20.1204713 5.26658174,20.1204713 C6.14052478,20.1204713 6.86657509,19.408841 6.86657509,18.5522554 C6.86657509,17.6956697 6.14052478,16.9840395 5.26658174,16.9840395 Z" id="Fill-1"></path>
            </g>
        </g>
    </g>
</svg>