<?xml version="1.0" encoding="UTF-8"?>
<svg width="26px" height="26px" viewBox="0 0 26 26" version="1.1" xmlns="http://www.w3.org/2000/svg" xmlns:xlink="http://www.w3.org/1999/xlink">
    <!-- Generator: Sketch 53.1 (72631) - https://sketchapp.com -->
    <title>Facebook</title>
    <desc>Created with Sketch.</desc>
    <defs>
        <linearGradient x1="0%" y1="100%" x2="100%" y2="0%" id="linearGradient-1">
            <stop stop-color="#1480C8" offset="0%"></stop>
            <stop stop-color="#04A3FF" offset="100%"></stop>
        </linearGradient>
    </defs>
    <g id="Symbols" stroke="none" stroke-width="1" fill="none" fill-rule="evenodd" stroke-linejoin="round">
        <g id="Organisms-/-Blog-/-Share" transform="translate(0.000000, -62.000000)" stroke="url(#linearGradient-1)" stroke-width="1.15">
            <g id="UI-/-Elements-/-Share">
                <path d="M25,85.6754924 C25,86.4070442 24.4070442,87 23.6754924,87 L17.5596143,87 L17.5596143,77.7055651 L20.6793332,77.7055651 L21.146768,74.0837624 L17.5596143,74.0837624 L17.5596143,71.7714309 C17.5596143,70.7228079 17.851189,70.0075999 19.3548255,70.0075999 L21.2729427,70.0069461 L21.2729427,66.7675901 C20.9408352,66.7231348 19.8026477,66.6244177 18.4781401,66.6244177 C15.7127564,66.6244177 13.8194819,68.3124132 13.8194819,71.4125194 L13.8194819,74.0837624 L10.691918,74.0837624 L10.691918,77.7055651 L13.8194819,77.7055651 L13.8194819,87 L2.32450764,87 C1.59295579,87 1,86.4070442 1,85.6754924 L1,64.3245076 C1,63.5929558 1.59295579,63 2.32450764,63 L23.6754924,63 C24.4070442,63 25,63.5929558 25,64.3245076 L25,85.6754924" id="Facebook"></path>
            </g>
        </g>
    </g>
</svg>