<svg width="10" height="11" viewBox="0 0 10 11" fill="none" xmlns="http://www.w3.org/2000/svg">
<path d="M8.9932 0.530762H0.986974C0.712819 0.530762 0.490234 0.777584 0.490234 1.08269V9.9785C0.490234 10.2836 0.712819 10.5308 0.986974 10.5308H5.29729V6.65817H4.1245V5.14876H5.29729V4.03567C5.29729 2.74426 6.00698 2.04067 7.04403 2.04067C7.54121 2.04067 7.96756 2.082 8.09189 2.09995V3.44982L7.37257 3.45015C6.8087 3.45015 6.69993 3.74801 6.69993 4.18485V5.14826H8.04521L7.86931 6.65752H6.69978V10.5303H8.99305C9.2675 10.5303 9.49023 10.2828 9.49023 9.9785V1.08237C9.49009 0.777584 9.26765 0.530762 8.9932 0.530762Z" fill="white"/>
</svg>
