<?xml version="1.0" encoding="UTF-8"?>
<svg width="24px" height="24px" viewBox="0 0 24 24" version="1.1" xmlns="http://www.w3.org/2000/svg" xmlns:xlink="http://www.w3.org/1999/xlink">
    <!-- Generator: sketchtool 55.2 (78181) - https://sketchapp.com -->
    <title>0573CFC6-B711-4CA5-A411-50124320CFEB</title>
    <desc>Created with sketchtool.</desc>
    <g id="Mobile" stroke="none" stroke-width="1" fill="none" fill-rule="evenodd">
        <g id="SoftwareKeep-CategoryPage-OfficeForMac" transform="translate(-331.000000, -108.000000)" fill="#6D8FA0">
            <g id="Header">
                <path d="M340.855022,121.00019 C340.424706,122.445791 339.085975,123.499525 337.499855,123.499525 C335.914551,123.499525 334.575724,122.445791 334.145409,121.00019 L332.00043,121.00019 C331.448244,121.00019 331.00012,120.55581 331.00012,119.99988 C331.00012,119.447693 331.447308,118.99957 332.00043,118.99957 L334.145409,118.99957 C334.575724,117.553968 335.914455,116.500235 337.499855,116.500235 C339.086095,116.500235 340.424946,117.553968 340.855022,118.99957 L353.99969,118.99957 C354.551876,118.99957 355,119.44395 355,119.99988 C355,120.552066 354.552812,121.00019 353.99969,121.00019 L340.855022,121.00019 Z M345.144979,127.499805 C345.575294,126.054203 346.914025,124.99951 348.500145,124.99951 C350.085449,124.99951 351.424276,126.054179 351.854591,127.499805 L353.99957,127.499805 C354.551756,127.499805 354.99988,127.943248 354.99988,128.500115 C354.99988,129.052301 354.552692,129.499489 353.99957,129.499489 L351.854591,129.499489 C351.424276,130.94509 350.085545,131.999784 348.500145,131.999784 C346.913905,131.999784 345.575054,130.945115 345.144979,129.499489 L332.00031,129.499489 C331.448124,129.499489 331,129.056045 331,128.500115 C331,127.947928 331.447188,127.499805 332.00031,127.499805 L345.144979,127.499805 Z M345.144979,110.500295 C345.575294,109.054693 346.914025,108 348.500145,108 C350.085449,108 351.424276,109.054669 351.854591,110.500295 L353.99957,110.500295 C354.551756,110.500295 354.99988,110.943739 354.99988,111.499669 C354.99988,112.051855 354.552692,112.499979 353.99957,112.499979 L351.854591,112.499979 C351.424276,113.945581 350.085545,115.000274 348.500145,115.000274 C346.913905,115.000274 345.575054,113.945605 345.144979,112.499979 L332.00031,112.499979 C331.448124,112.499979 331,112.056535 331,111.499669 C331,110.947483 331.447188,110.500295 332.00031,110.500295 L345.144979,110.500295 Z M348.500145,112.99963 C349.327945,112.99963 350.00013,112.328381 350.00013,111.499645 C350.00013,110.671845 349.327945,109.99966 348.500145,109.99966 C347.671409,109.99966 347.00016,110.671845 347.00016,111.499645 C347.00016,112.328381 347.671409,112.99963 348.500145,112.99963 Z M348.500145,130.000099 C349.327945,130.000099 350.00013,129.327915 350.00013,128.500115 C350.00013,127.671379 349.327945,127.00013 348.500145,127.00013 C347.671409,127.00013 347.00016,127.671379 347.00016,128.500115 C347.00016,129.327915 347.671409,130.000099 348.500145,130.000099 Z M337.499615,118.499895 C336.671815,118.499895 335.99963,119.171144 335.99963,119.99988 C335.99963,120.828616 336.671815,121.499865 337.499615,121.499865 C338.328351,121.499865 338.9996,120.828616 338.9996,119.99988 C338.9996,119.171144 338.328351,118.499895 337.499615,118.499895 Z" id="Filter"></path>
            </g>
        </g>
    </g>
</svg>