<svg width="328" height="64" viewBox="0 0 328 64" fill="none" xmlns="http://www.w3.org/2000/svg">
<path d="M64.7808 0.383959C64.4087 -0.000794086 63.8347 -0.10802 63.349 0.115263L0.735191 28.8519C0.231859 29.084 -0.0620677 29.6151 0.0110985 30.1651C0.0842647 30.7151 0.506862 31.1516 1.05309 31.2424L29.1375 35.949L32.348 62.4882C32.4161 63.0407 32.8387 63.486 33.3875 63.5793C33.4594 63.592 33.53 63.5983 33.6007 63.5983C34.0737 63.5983 34.5165 63.3321 34.731 62.8969L65.0066 1.82205C65.2438 1.34395 65.153 0.767451 64.7808 0.383959Z" fill="#F4DB9E"/>
<path d="M63.2257 0.115263C63.7113 -0.10802 64.2853 -0.000794086 64.6574 0.383959C65.0296 0.767451 65.1204 1.34395 64.8832 1.82205L34.6076 62.8969C34.3931 63.3321 33.9504 63.5983 33.4773 63.5983C33.4067 63.5983 33.336 63.592 33.2641 63.5793C32.7154 63.486 32.2928 63.0407 32.2246 62.4882L29.0142 35.949L63.2257 0.115263Z" fill="#ECC35D"/>
<path d="M88.082 41.556C87.706 41.8067 86.9697 42.1357 85.873 42.543C84.8077 42.919 83.5543 43.107 82.113 43.107C80.6403 43.107 79.246 42.872 77.93 42.402C76.6453 41.932 75.5173 41.2113 74.546 40.24C73.5747 39.2373 72.807 37.9997 72.243 36.527C71.679 35.0543 71.397 33.2997 71.397 31.263C71.397 29.477 71.6633 27.8477 72.196 26.375C72.7287 24.871 73.4963 23.5863 74.499 22.521C75.533 21.4243 76.7863 20.5783 78.259 19.983C79.7317 19.3563 81.3923 19.043 83.241 19.043C85.2777 19.043 87.048 19.1997 88.552 19.513C90.0873 19.795 91.372 20.0613 92.406 20.312V42.12C92.406 45.88 91.4347 48.606 89.492 50.298C87.5493 51.99 84.604 52.836 80.656 52.836C79.1207 52.836 77.6637 52.7107 76.285 52.46C74.9377 52.2093 73.7627 51.9117 72.76 51.567L73.559 47.76C74.4363 48.1047 75.5017 48.4023 76.755 48.653C78.0397 48.935 79.3713 49.076 80.75 49.076C83.3507 49.076 85.215 48.559 86.343 47.525C87.5023 46.491 88.082 44.846 88.082 42.59V41.556ZM88.035 23.414C87.5963 23.2887 87.001 23.179 86.249 23.085C85.5283 22.9597 84.5413 22.897 83.288 22.897C80.938 22.897 79.1207 23.6647 77.836 25.2C76.5827 26.7353 75.956 28.772 75.956 31.31C75.956 32.72 76.1283 33.9263 76.473 34.929C76.849 35.9317 77.3347 36.762 77.93 37.42C78.5567 38.078 79.2617 38.5637 80.045 38.877C80.8597 39.1903 81.69 39.347 82.536 39.347C83.6953 39.347 84.7607 39.1903 85.732 38.877C86.7033 38.5323 87.471 38.1407 88.035 37.702V23.414ZM98.5689 31.827C98.5689 29.665 98.8822 27.785 99.5089 26.187C100.136 24.5577 100.966 23.2103 102 22.145C103.034 21.0797 104.225 20.2807 105.572 19.748C106.919 19.2153 108.298 18.949 109.708 18.949C112.998 18.949 115.52 19.983 117.275 22.051C119.03 24.0877 119.907 27.2053 119.907 31.404C119.907 31.592 119.907 31.8427 119.907 32.156C119.907 32.438 119.891 32.7043 119.86 32.955H103.128C103.316 35.493 104.052 37.42 105.337 38.736C106.622 40.052 108.627 40.71 111.353 40.71C112.888 40.71 114.173 40.5847 115.207 40.334C116.272 40.052 117.071 39.7857 117.604 39.535L118.215 43.201C117.682 43.483 116.742 43.7807 115.395 44.094C114.079 44.4073 112.575 44.564 110.883 44.564C108.752 44.564 106.904 44.2507 105.337 43.624C103.802 42.966 102.533 42.073 101.53 40.945C100.527 39.817 99.7752 38.4853 99.2739 36.95C98.8039 35.3833 98.5689 33.6757 98.5689 31.827ZM115.348 29.43C115.379 27.456 114.878 25.8423 113.844 24.589C112.841 23.3043 111.447 22.662 109.661 22.662C108.658 22.662 107.765 22.8657 106.982 23.273C106.23 23.649 105.588 24.1503 105.055 24.777C104.522 25.4037 104.099 26.1243 103.786 26.939C103.504 27.7537 103.316 28.584 103.222 29.43H115.348ZM130.275 19.56H139.534V23.226H130.275V34.506C130.275 35.728 130.369 36.7463 130.557 37.561C130.745 38.3443 131.027 38.971 131.403 39.441C131.779 39.8797 132.249 40.193 132.813 40.381C133.377 40.569 134.035 40.663 134.787 40.663C136.103 40.663 137.152 40.522 137.936 40.24C138.75 39.9267 139.314 39.7073 139.628 39.582L140.474 43.201C140.035 43.4203 139.267 43.6867 138.171 44C137.074 44.3447 135.821 44.517 134.411 44.517C132.75 44.517 131.371 44.3133 130.275 43.906C129.209 43.4673 128.348 42.825 127.69 41.979C127.032 41.133 126.562 40.099 126.28 38.877C126.029 37.6237 125.904 36.1823 125.904 34.553V12.745L130.275 11.993V19.56ZM145.096 20.265C146.099 20.0143 147.415 19.748 149.044 19.466C150.705 19.184 152.616 19.043 154.778 19.043C156.345 19.043 157.661 19.2623 158.726 19.701C159.791 20.1083 160.684 20.7193 161.405 21.534C161.624 21.3773 161.969 21.158 162.439 20.876C162.909 20.594 163.489 20.3277 164.178 20.077C164.867 19.795 165.635 19.56 166.481 19.372C167.327 19.1527 168.236 19.043 169.207 19.043C171.087 19.043 172.622 19.325 173.813 19.889C175.004 20.4217 175.928 21.1893 176.586 22.192C177.275 23.1947 177.73 24.3853 177.949 25.764C178.2 27.1427 178.325 28.6467 178.325 30.276V44H173.954V31.216C173.954 29.7747 173.876 28.537 173.719 27.503C173.594 26.469 173.327 25.6073 172.92 24.918C172.544 24.2287 172.011 23.7273 171.322 23.414C170.664 23.0693 169.802 22.897 168.737 22.897C167.264 22.897 166.042 23.1007 165.071 23.508C164.131 23.884 163.489 24.2287 163.144 24.542C163.395 25.3567 163.583 26.2497 163.708 27.221C163.833 28.1923 163.896 29.2107 163.896 30.276V44H159.525V31.216C159.525 29.7747 159.447 28.537 159.29 27.503C159.133 26.469 158.851 25.6073 158.444 24.918C158.068 24.2287 157.535 23.7273 156.846 23.414C156.188 23.0693 155.342 22.897 154.308 22.897C153.869 22.897 153.399 22.9127 152.898 22.944C152.397 22.9753 151.911 23.0223 151.441 23.085C151.002 23.1163 150.595 23.1633 150.219 23.226C149.843 23.2887 149.592 23.3357 149.467 23.367V44H145.096V20.265ZM191.265 40.851C193.051 40.851 194.367 40.616 195.213 40.146C196.091 39.676 196.529 38.924 196.529 37.89C196.529 36.8247 196.106 35.9787 195.26 35.352C194.414 34.7253 193.02 34.0203 191.077 33.237C190.137 32.861 189.229 32.485 188.351 32.109C187.505 31.7017 186.769 31.2317 186.142 30.699C185.516 30.1663 185.014 29.524 184.638 28.772C184.262 28.02 184.074 27.0957 184.074 25.999C184.074 23.837 184.873 22.1293 186.471 20.876C188.069 19.5913 190.247 18.949 193.004 18.949C193.694 18.949 194.383 18.996 195.072 19.09C195.762 19.1527 196.404 19.2467 196.999 19.372C197.595 19.466 198.112 19.5757 198.55 19.701C199.02 19.8263 199.381 19.936 199.631 20.03L198.832 23.79C198.362 23.5393 197.626 23.2887 196.623 23.038C195.621 22.756 194.414 22.615 193.004 22.615C191.782 22.615 190.717 22.8657 189.808 23.367C188.9 23.837 188.445 24.589 188.445 25.623C188.445 26.1557 188.539 26.6257 188.727 27.033C188.947 27.4403 189.26 27.8163 189.667 28.161C190.106 28.4743 190.639 28.772 191.265 29.054C191.892 29.336 192.644 29.6337 193.521 29.947C194.681 30.3857 195.715 30.8243 196.623 31.263C197.532 31.6703 198.3 32.156 198.926 32.72C199.584 33.284 200.086 33.9733 200.43 34.788C200.775 35.5713 200.947 36.5427 200.947 37.702C200.947 39.958 200.101 41.6657 198.409 42.825C196.749 43.9843 194.367 44.564 191.265 44.564C189.103 44.564 187.411 44.376 186.189 44C184.967 43.6553 184.137 43.389 183.698 43.201L184.497 39.441C184.999 39.629 185.798 39.911 186.894 40.287C187.991 40.663 189.448 40.851 191.265 40.851ZM228.127 31.78C228.127 33.7227 227.845 35.4773 227.281 37.044C226.717 38.6107 225.918 39.958 224.884 41.086C223.881 42.214 222.675 43.0913 221.265 43.718C219.855 44.3133 218.32 44.611 216.659 44.611C214.998 44.611 213.463 44.3133 212.053 43.718C210.643 43.0913 209.421 42.214 208.387 41.086C207.384 39.958 206.601 38.6107 206.037 37.044C205.473 35.4773 205.191 33.7227 205.191 31.78C205.191 29.8687 205.473 28.1297 206.037 26.563C206.601 24.965 207.384 23.602 208.387 22.474C209.421 21.346 210.643 20.4843 212.053 19.889C213.463 19.2623 214.998 18.949 216.659 18.949C218.32 18.949 219.855 19.2623 221.265 19.889C222.675 20.4843 223.881 21.346 224.884 22.474C225.918 23.602 226.717 24.965 227.281 26.563C227.845 28.1297 228.127 29.8687 228.127 31.78ZM223.568 31.78C223.568 29.0227 222.941 26.845 221.688 25.247C220.466 23.6177 218.79 22.803 216.659 22.803C214.528 22.803 212.836 23.6177 211.583 25.247C210.361 26.845 209.75 29.0227 209.75 31.78C209.75 34.5373 210.361 36.7307 211.583 38.36C212.836 39.958 214.528 40.757 216.659 40.757C218.79 40.757 220.466 39.958 221.688 38.36C222.941 36.7307 223.568 34.5373 223.568 31.78ZM243.818 7.528C245.102 7.528 246.199 7.622 247.108 7.81C248.048 7.998 248.706 8.17033 249.082 8.327L248.283 12.087C247.907 11.899 247.374 11.7267 246.685 11.57C245.995 11.382 245.149 11.288 244.147 11.288C242.11 11.288 240.684 11.852 239.87 12.98C239.055 14.0767 238.648 15.565 238.648 17.445V19.56H248.048V23.226H238.648V44H234.277V17.351C234.277 14.2177 235.044 11.805 236.58 10.113C238.115 8.38967 240.528 7.528 243.818 7.528ZM262.148 7.528C263.244 7.528 264.184 7.60633 264.968 7.763C265.751 7.88833 266.315 8.01367 266.66 8.139L266.049 11.899C265.704 11.7737 265.234 11.6483 264.639 11.523C264.043 11.3663 263.323 11.288 262.477 11.288C260.44 11.288 259.014 11.852 258.2 12.98C257.385 14.0767 256.978 15.565 256.978 17.445V19.56H266.378V23.226H256.978V44H252.607V17.351C252.607 14.2177 253.374 11.805 254.91 10.113C256.445 8.38967 258.858 7.528 262.148 7.528ZM275.308 44H270.937V19.56H275.308V44ZM273.099 15.142C272.315 15.142 271.642 14.8913 271.078 14.39C270.545 13.8573 270.279 13.1523 270.279 12.275C270.279 11.3977 270.545 10.7083 271.078 10.207C271.642 9.67433 272.315 9.408 273.099 9.408C273.882 9.408 274.54 9.67433 275.073 10.207C275.637 10.7083 275.919 11.3977 275.919 12.275C275.919 13.1523 275.637 13.8573 275.073 14.39C274.54 14.8913 273.882 15.142 273.099 15.142ZM293.459 44.564C291.485 44.564 289.746 44.2507 288.242 43.624C286.769 42.9973 285.516 42.12 284.482 40.992C283.479 39.864 282.727 38.5323 282.226 36.997C281.725 35.4303 281.474 33.707 281.474 31.827C281.474 29.947 281.74 28.2237 282.273 26.657C282.837 25.0903 283.62 23.743 284.623 22.615C285.626 21.4557 286.848 20.5627 288.289 19.936C289.762 19.278 291.391 18.949 293.177 18.949C294.274 18.949 295.37 19.043 296.467 19.231C297.564 19.419 298.613 19.7167 299.616 20.124L298.629 23.837C297.971 23.5237 297.203 23.273 296.326 23.085C295.48 22.897 294.571 22.803 293.6 22.803C291.156 22.803 289.276 23.5707 287.96 25.106C286.675 26.6413 286.033 28.8817 286.033 31.827C286.033 33.143 286.174 34.3493 286.456 35.446C286.769 36.5427 287.239 37.4827 287.866 38.266C288.524 39.0493 289.354 39.6603 290.357 40.099C291.36 40.5063 292.582 40.71 294.023 40.71C295.182 40.71 296.232 40.6003 297.172 40.381C298.112 40.1617 298.848 39.9267 299.381 39.676L299.992 43.342C299.741 43.4987 299.381 43.6553 298.911 43.812C298.441 43.9373 297.908 44.047 297.313 44.141C296.718 44.2663 296.075 44.3603 295.386 44.423C294.728 44.517 294.086 44.564 293.459 44.564ZM303.322 31.827C303.322 29.665 303.635 27.785 304.262 26.187C304.888 24.5577 305.719 23.2103 306.753 22.145C307.787 21.0797 308.977 20.2807 310.325 19.748C311.672 19.2153 313.051 18.949 314.461 18.949C317.751 18.949 320.273 19.983 322.028 22.051C323.782 24.0877 324.66 27.2053 324.66 31.404C324.66 31.592 324.66 31.8427 324.66 32.156C324.66 32.438 324.644 32.7043 324.613 32.955H307.881C308.069 35.493 308.805 37.42 310.09 38.736C311.374 40.052 313.38 40.71 316.106 40.71C317.641 40.71 318.926 40.5847 319.96 40.334C321.025 40.052 321.824 39.7857 322.357 39.535L322.968 43.201C322.435 43.483 321.495 43.7807 320.148 44.094C318.832 44.4073 317.328 44.564 315.636 44.564C313.505 44.564 311.656 44.2507 310.09 43.624C308.554 42.966 307.285 42.073 306.283 40.945C305.28 39.817 304.528 38.4853 304.027 36.95C303.557 35.3833 303.322 33.6757 303.322 31.827ZM320.101 29.43C320.132 27.456 319.631 25.8423 318.597 24.589C317.594 23.3043 316.2 22.662 314.414 22.662C313.411 22.662 312.518 22.8657 311.735 23.273C310.983 23.649 310.34 24.1503 309.808 24.777C309.275 25.4037 308.852 26.1243 308.539 26.939C308.257 27.7537 308.069 28.584 307.975 29.43H320.101Z" fill="#6C6D70"/>
</svg>
