<svg width="199" height="39" viewBox="0 0 199 39" fill="none" xmlns="http://www.w3.org/2000/svg">
<g clip-path="url(#clip0_4_42)">
<path d="M39.5957 0.233975C39.3711 -0.000484064 39.0246 -0.0658248 38.7314 0.0702382L0.934039 17.5816C0.630198 17.7231 0.452767 18.0467 0.496934 18.3819C0.541101 18.717 0.796206 18.983 1.12594 19.0383L18.0793 21.9064L20.0174 38.0787C20.0585 38.4154 20.3136 38.6868 20.6449 38.7436C20.6883 38.7514 20.7309 38.7552 20.7736 38.7552C21.0591 38.7552 21.3264 38.593 21.4559 38.3278L39.732 1.11031C39.8752 0.818969 39.8204 0.467665 39.5957 0.233975Z" fill="#5184C7"/>
<path d="M38.657 0.0702382C38.9501 -0.0658248 39.2966 -0.000484058 39.5212 0.233975C39.7459 0.467665 39.8007 0.818969 39.6575 1.11031L21.3814 38.3278C21.2519 38.593 20.9847 38.7552 20.6991 38.7552C20.6565 38.7552 20.6138 38.7514 20.5704 38.7436C20.2392 38.6868 19.9841 38.4154 19.9429 38.0787L18.0049 21.9064L38.657 0.0702382Z" fill="#619FEF"/>
<path d="M53.6617 25.3232C53.4347 25.476 52.9903 25.6765 52.3282 25.9247C51.6851 26.1538 50.9285 26.2684 50.0585 26.2684C49.1695 26.2684 48.3278 26.1252 47.5334 25.8387C46.7578 25.5523 46.0769 25.1132 45.4906 24.5213C44.9042 23.9103 44.4408 23.1561 44.1004 22.2587C43.7599 21.3612 43.5897 20.292 43.5897 19.0509C43.5897 17.9626 43.7504 16.9697 44.072 16.0723C44.3936 15.1558 44.8569 14.3729 45.4622 13.7238C46.0864 13.0555 46.843 12.5399 47.732 12.1772C48.621 11.7953 49.6234 11.6044 50.7394 11.6044C51.9689 11.6044 53.0375 11.6998 53.9454 11.8908C54.8722 12.0626 55.6477 12.2249 56.2719 12.3777V25.6669C56.2719 27.9582 55.6856 29.6193 54.5129 30.6504C53.3401 31.6814 51.5622 32.197 49.1789 32.197C48.2521 32.197 47.3726 32.1206 46.5403 31.9678C45.727 31.8151 45.0177 31.6337 44.4124 31.4237L44.8948 29.1038C45.4244 29.3138 46.0675 29.4952 46.8241 29.6479C47.5996 29.8198 48.4034 29.9057 49.2357 29.9057C50.8056 29.9057 51.931 29.5907 52.6119 28.9606C53.3118 28.3305 53.6617 27.3281 53.6617 25.9533V25.3232ZM53.6333 14.2679C53.3685 14.1916 53.0091 14.1247 52.5552 14.0674C52.1201 13.9911 51.5243 13.9529 50.7678 13.9529C49.3492 13.9529 48.2521 14.4207 47.4766 15.3563C46.72 16.2919 46.3417 17.533 46.3417 19.0796C46.3417 19.9388 46.4457 20.6739 46.6538 21.2849C46.8808 21.8959 47.174 22.4019 47.5334 22.8028C47.9117 23.2038 48.3373 23.4998 48.8101 23.6907C49.3019 23.8816 49.8031 23.9771 50.3138 23.9771C51.0136 23.9771 51.6568 23.8816 52.2431 23.6907C52.8294 23.4806 53.2929 23.242 53.6333 22.9747V14.2679ZM59.9922 19.3946C59.9922 18.0771 60.1813 16.9315 60.5596 15.9577C60.9382 14.9649 61.4392 14.1438 62.0634 13.4946C62.6876 12.8455 63.4066 12.3586 64.2197 12.034C65.0328 11.7094 65.8653 11.5471 66.7164 11.5471C68.7025 11.5471 70.2249 12.1772 71.2843 13.4374C72.3437 14.6785 72.8731 16.5783 72.8731 19.1368C72.8731 19.2514 72.8731 19.4042 72.8731 19.5951C72.8731 19.7669 72.8635 19.9292 72.8448 20.082H62.7443C62.8578 21.6286 63.3021 22.8028 64.0778 23.6048C64.8535 24.4067 66.0639 24.8077 67.7094 24.8077C68.6361 24.8077 69.4118 24.7313 70.0359 24.5786C70.6788 24.4067 71.1612 24.2444 71.4829 24.0917L71.8517 26.3256C71.53 26.4975 70.9626 26.6789 70.1494 26.8698C69.355 27.0607 68.4471 27.1562 67.4257 27.1562C66.1393 27.1562 65.0238 26.9653 64.0778 26.5834C63.1512 26.1824 62.3852 25.6383 61.7797 24.9509C61.1742 24.2635 60.7204 23.452 60.4178 22.5164C60.1341 21.5617 59.9922 20.5212 59.9922 19.3946ZM70.1211 17.9339C70.1398 16.731 69.8373 15.7477 69.2132 14.9839C68.6077 14.2011 67.7662 13.8097 66.688 13.8097C66.0826 13.8097 65.5435 13.9338 65.0708 14.182C64.6169 14.4111 64.2293 14.7166 63.9076 15.0985C63.5858 15.4804 63.3305 15.9195 63.1416 16.416C62.9713 16.9124 62.8578 17.4184 62.8011 17.9339H70.1211ZM79.1319 11.9194H84.7211V14.1534H79.1319V21.0271C79.1319 21.7718 79.1886 22.3923 79.3021 22.8888C79.4156 23.3661 79.5858 23.748 79.8128 24.0344C80.0398 24.3017 80.3235 24.4926 80.664 24.6072C81.0044 24.7218 81.4016 24.779 81.8556 24.779C82.65 24.779 83.2832 24.6931 83.7565 24.5213C84.2479 24.3304 84.5883 24.1967 84.7779 24.1203L85.2886 26.3256C85.0236 26.4593 84.56 26.6216 83.8984 26.8125C83.2361 27.0226 82.4798 27.1276 81.6286 27.1276C80.6259 27.1276 79.7935 27.0034 79.1319 26.7552C78.4884 26.4879 77.9686 26.0965 77.5714 25.581C77.1742 25.0654 76.8905 24.4354 76.7202 23.6907C76.5687 22.927 76.4933 22.0486 76.4933 21.0558V7.76651L79.1319 7.30826V11.9194ZM88.0787 12.349C88.6842 12.1962 89.4786 12.034 90.4619 11.8621C91.4646 11.6903 92.6182 11.6044 93.9233 11.6044C94.8692 11.6044 95.6637 11.738 96.3065 12.0053C96.9494 12.2535 97.4885 12.6259 97.9238 13.1223C98.056 13.0268 98.2642 12.8932 98.5479 12.7213C98.8317 12.5495 99.1818 12.3872 99.5977 12.2344C100.014 12.0626 100.477 11.9194 100.988 11.8048C101.499 11.6712 102.047 11.6044 102.633 11.6044C103.768 11.6044 104.695 11.7762 105.414 12.1199C106.133 12.4445 106.691 12.9123 107.088 13.5233C107.504 14.1343 107.778 14.8598 107.911 15.7C108.062 16.5401 108.138 17.4566 108.138 18.4495V26.8125H105.499V19.0223C105.499 18.144 105.452 17.3898 105.357 16.7597C105.282 16.1296 105.121 15.6045 104.875 15.1844C104.648 14.7644 104.326 14.4589 103.91 14.2679C103.513 14.0579 102.993 13.9529 102.35 13.9529C101.461 13.9529 100.723 14.077 100.137 14.3252C99.5693 14.5543 99.1818 14.7644 98.9735 14.9553C99.125 15.4518 99.2385 15.9959 99.314 16.5878C99.3894 17.1797 99.4275 17.8003 99.4275 18.4495V26.8125H96.7889V19.0223C96.7889 18.144 96.7418 17.3898 96.647 16.7597C96.5522 16.1296 96.382 15.6045 96.1363 15.1844C95.9093 14.7644 95.5876 14.4589 95.1717 14.2679C94.7745 14.0579 94.2638 13.9529 93.6396 13.9529C93.3746 13.9529 93.0909 13.9625 92.7884 13.9815C92.486 14.0006 92.1926 14.0292 91.9089 14.0674C91.6439 14.0865 91.3982 14.1152 91.1712 14.1534C90.9442 14.1916 90.7927 14.2202 90.7173 14.2393V26.8125H88.0787V12.349ZM115.949 24.8936C117.027 24.8936 117.822 24.7504 118.332 24.464C118.862 24.1776 119.127 23.7193 119.127 23.0892C119.127 22.4401 118.871 21.9245 118.361 21.5427C117.85 21.1608 117.008 20.7311 115.836 20.2538C115.268 20.0247 114.72 19.7956 114.19 19.5665C113.679 19.3183 113.235 19.0318 112.856 18.7072C112.479 18.3826 112.176 17.9912 111.949 17.533C111.722 17.0747 111.608 16.5115 111.608 15.8432C111.608 14.5257 112.09 13.4851 113.055 12.7213C114.02 11.9385 115.334 11.5471 116.999 11.5471C117.415 11.5471 117.831 11.5757 118.247 11.633C118.664 11.6712 119.051 11.7285 119.41 11.8048C119.77 11.8621 120.082 11.929 120.347 12.0053C120.63 12.0817 120.848 12.1485 120.999 12.2058L120.517 14.4971C120.233 14.3443 119.789 14.1916 119.183 14.0388C118.579 13.867 117.85 13.781 116.999 13.781C116.261 13.781 115.618 13.9338 115.069 14.2393C114.521 14.5257 114.247 14.9839 114.247 15.614C114.247 15.9387 114.303 16.2251 114.417 16.4733C114.55 16.7215 114.739 16.9506 114.984 17.1606C115.249 17.3516 115.571 17.533 115.949 17.7048C116.327 17.8767 116.781 18.0581 117.311 18.249C118.011 18.5163 118.635 18.7836 119.183 19.0509C119.732 19.2991 120.196 19.5951 120.574 19.9388C120.971 20.2825 121.274 20.7025 121.482 21.199C121.69 21.6763 121.794 22.2682 121.794 22.9747C121.794 24.3494 121.283 25.3901 120.262 26.0965C119.259 26.803 117.822 27.1562 115.949 27.1562C114.644 27.1562 113.622 27.0417 112.885 26.8125C112.147 26.6025 111.646 26.4402 111.381 26.3256L111.863 24.0344C112.166 24.149 112.649 24.3208 113.31 24.5499C113.973 24.779 114.852 24.8936 115.949 24.8936ZM138.201 19.366C138.201 20.5498 138.031 21.619 137.69 22.5737C137.35 23.5284 136.868 24.3494 136.243 25.0368C135.638 25.7242 134.91 26.2588 134.059 26.6407C133.208 27.0034 132.281 27.1849 131.278 27.1849C130.276 27.1849 129.349 27.0034 128.498 26.6407C127.647 26.2588 126.909 25.7242 126.285 25.0368C125.679 24.3494 125.207 23.5284 124.866 22.5737C124.526 21.619 124.356 20.5498 124.356 19.366C124.356 18.2013 124.526 17.1416 124.866 16.1869C125.207 15.2131 125.679 14.3825 126.285 13.6951C126.909 13.0077 127.647 12.4826 128.498 12.1199C129.349 11.738 130.276 11.5471 131.278 11.5471C132.281 11.5471 133.208 11.738 134.059 12.1199C134.91 12.4826 135.638 13.0077 136.243 13.6951C136.868 14.3825 137.35 15.2131 137.69 16.1869C138.031 17.1416 138.201 18.2013 138.201 19.366ZM135.449 19.366C135.449 17.6857 135.07 16.3587 134.314 15.3849C133.576 14.3921 132.565 13.8956 131.278 13.8956C129.992 13.8956 128.971 14.3921 128.214 15.3849C127.476 16.3587 127.108 17.6857 127.108 19.366C127.108 21.0462 127.476 22.3828 128.214 23.3757C128.971 24.3494 129.992 24.8363 131.278 24.8363C132.565 24.8363 133.576 24.3494 134.314 23.3757C135.07 22.3828 135.449 21.0462 135.449 19.366ZM147.673 4.5874C148.448 4.5874 149.11 4.64468 149.659 4.75925C150.227 4.87381 150.624 4.97882 150.851 5.07429L150.368 7.36554C150.141 7.25098 149.82 7.14599 149.404 7.0505C148.987 6.93593 148.477 6.87865 147.872 6.87865C146.642 6.87865 145.781 7.22234 145.29 7.90971C144.798 8.57802 144.552 9.48495 144.552 10.6306V11.9194H150.227V14.1534H144.552V26.8125H141.914V10.5733C141.914 8.66394 142.377 7.1937 143.304 6.16264C144.23 5.11248 145.687 4.5874 147.673 4.5874ZM158.738 4.5874C159.4 4.5874 159.967 4.63513 160.44 4.73061C160.913 4.80698 161.254 4.88336 161.462 4.95973L161.093 7.25098C160.885 7.17463 160.601 7.09821 160.242 7.02186C159.882 6.92637 159.447 6.87865 158.937 6.87865C157.707 6.87865 156.846 7.22234 156.355 7.90971C155.863 8.57802 155.617 9.48495 155.617 10.6306V11.9194H161.292V14.1534H155.617V26.8125H152.979V10.5733C152.979 8.66394 153.442 7.1937 154.369 6.16264C155.295 5.11248 156.752 4.5874 158.738 4.5874ZM166.682 26.8125H164.044V11.9194H166.682V26.8125ZM165.349 9.22718C164.876 9.22718 164.469 9.07441 164.129 8.76893C163.807 8.44432 163.646 8.01471 163.646 7.48011C163.646 6.9455 163.807 6.5254 164.129 6.21992C164.469 5.89532 164.876 5.73303 165.349 5.73303C165.821 5.73303 166.219 5.89532 166.54 6.21992C166.881 6.5254 167.051 6.9455 167.051 7.48011C167.051 8.01471 166.881 8.44432 166.54 8.76893C166.219 9.07441 165.821 9.22718 165.349 9.22718ZM177.639 27.1562C176.448 27.1562 175.398 26.9653 174.49 26.5834C173.601 26.2015 172.844 25.6669 172.22 24.9795C171.615 24.2922 171.161 23.4806 170.858 22.5451C170.556 21.5904 170.404 20.5402 170.404 19.3946C170.404 18.249 170.565 17.1988 170.887 16.2441C171.227 15.2894 171.7 14.4684 172.305 13.781C172.911 13.0746 173.648 12.5304 174.518 12.1485C175.408 11.7476 176.391 11.5471 177.469 11.5471C178.131 11.5471 178.793 11.6044 179.455 11.7189C180.117 11.8335 180.751 12.0149 181.356 12.2631L180.76 14.5257C180.363 14.3348 179.899 14.182 179.37 14.0674C178.859 13.9529 178.311 13.8956 177.724 13.8956C176.249 13.8956 175.114 14.3634 174.32 15.299C173.544 16.2346 173.156 17.5998 173.156 19.3946C173.156 20.1965 173.242 20.9316 173.412 21.5999C173.601 22.2682 173.885 22.841 174.263 23.3184C174.66 23.7957 175.161 24.168 175.767 24.4354C176.372 24.6836 177.11 24.8077 177.98 24.8077C178.679 24.8077 179.313 24.7408 179.881 24.6072C180.448 24.4736 180.892 24.3304 181.214 24.1776L181.583 26.4116C181.431 26.507 181.214 26.6025 180.93 26.698C180.647 26.7743 180.325 26.8412 179.966 26.8984C179.607 26.9748 179.218 27.0321 178.803 27.0703C178.405 27.1276 178.018 27.1562 177.639 27.1562ZM183.593 19.3946C183.593 18.0771 183.782 16.9315 184.161 15.9577C184.538 14.9649 185.04 14.1438 185.664 13.4946C186.288 12.8455 187.007 12.3586 187.821 12.034C188.634 11.7094 189.466 11.5471 190.317 11.5471C192.303 11.5471 193.826 12.1772 194.885 13.4374C195.944 14.6785 196.474 16.5783 196.474 19.1368C196.474 19.2514 196.474 19.4042 196.474 19.5951C196.474 19.7669 196.464 19.9292 196.446 20.082H186.345C186.459 21.6286 186.903 22.8028 187.679 23.6048C188.454 24.4067 189.665 24.8077 191.31 24.8077C192.237 24.8077 193.013 24.7313 193.637 24.5786C194.28 24.4067 194.762 24.2444 195.084 24.0917L195.453 26.3256C195.131 26.4975 194.563 26.6789 193.75 26.8698C192.956 27.0607 192.048 27.1562 191.027 27.1562C189.74 27.1562 188.624 26.9653 187.679 26.5834C186.751 26.1824 185.985 25.6383 185.381 24.9509C184.775 24.2635 184.321 23.452 184.019 22.5164C183.735 21.5617 183.593 20.5212 183.593 19.3946ZM193.722 17.9339C193.741 16.731 193.438 15.7477 192.814 14.9839C192.209 14.2011 191.367 13.8097 190.289 13.8097C189.683 13.8097 189.144 13.9338 188.672 14.182C188.218 14.4111 187.83 14.7166 187.508 15.0985C187.187 15.4804 186.931 15.9195 186.742 16.416C186.572 16.9124 186.459 17.4184 186.402 17.9339H193.722Z" fill="#4A4B4E"/>
</g>
<defs>
<clipPath id="clip0_4_42">
<rect width="198" height="39" fill="white" transform="translate(0.490234)"/>
</clipPath>
</defs>
</svg>
