<?xml version="1.0" encoding="UTF-8"?>
<svg width="18px" height="20px" viewBox="0 0 18 20" version="1.1" xmlns="http://www.w3.org/2000/svg" xmlns:xlink="http://www.w3.org/1999/xlink">
    <!-- Generator: sketchtool 54.1 (76490) - https://sketchapp.com -->
    <title>86A3B5E7-30CC-4950-BE67-7B21E366D8FF</title>
    <desc>Created with sketchtool.</desc>
    <defs>
        <path d="M5,19 L5,21 C5,21.5522847 4.55228475,22 4,22 C3.44771525,22 3,21.5522847 3,21 L3,19 C3,15.9352916 7.83098067,14 12,14 C16.1690193,14 21,15.9352916 21,19 L21,21 C21,21.5522847 20.5522847,22 20,22 C19.4477153,22 19,21.5522847 19,21 L19,19 C19,17.5399072 15.1559994,16 12,16 C8.8440006,16 5,17.5399072 5,19 Z M17,7 C17,9.76228475 14.7622847,12 12,12 C9.23771525,12 7,9.76228475 7,7 C7,4.23771525 9.23771525,2 12,2 C14.7622847,2 17,4.23771525 17,7 Z M15,7 C15,5.34228475 13.6577153,4 12,4 C10.3422847,4 9,5.34228475 9,7 C9,8.65771525 10.3422847,10 12,10 C13.6577153,10 15,8.65771525 15,7 Z" id="path-1"></path>
    </defs>
    <g id="Blog" stroke="none" stroke-width="1" fill="none" fill-rule="evenodd">
        <g id="Blog-Page" transform="translate(-253.000000, -3186.000000)">
            <g id="TabBar-Copy" transform="translate(0.000000, 3177.000000)">
                <g id="Item-4" transform="translate(238.000000, 0.000000)">
                    <g id="Icon" transform="translate(0.000000, 2.000000)">
                        <g id="Icon_Account_Default" transform="translate(12.000000, 5.000000)">
                            <mask id="mask-2" fill="white">
                                <use xlink:href="#path-1"></use>
                            </mask>
                            <use id="Mask" fill="#6D8FA0" fill-rule="nonzero" xlink:href="#path-1"></use>
                        </g>
                    </g>
                </g>
            </g>
        </g>
    </g>
</svg>