<?xml version="1.0" encoding="UTF-8"?>
<svg width="24px" height="24px" viewBox="0 0 24 24" version="1.1" xmlns="http://www.w3.org/2000/svg" xmlns:xlink="http://www.w3.org/1999/xlink">
    <!-- Generator: sketchtool 54.1 (76490) - https://sketchapp.com -->
    <title>A957AF3B-5E5A-4F0D-BC57-727E6F889DE2</title>
    <desc>Created with sketchtool.</desc>
    <g id="Blog" stroke="none" stroke-width="1" fill="none" fill-rule="evenodd">
        <g id="Blog-Page" transform="translate(-101.000000, -3184.000000)">
            <g id="TabBar-Copy" transform="translate(0.000000, 3177.000000)">
                <g id="Item-2" transform="translate(89.000000, 0.000000)">
                    <g id="Icon" transform="translate(0.000000, 2.000000)">
                        <g id="Icon_Product_Default" transform="translate(10.000000, 3.000000)">
                            <rect id="矩形" fill-rule="nonzero" x="0" y="0" width="28" height="28"></rect>
                            <path d="M3.5,19.8333333 L3.5,6.41666667 C3.5,4.80583615 4.80583615,3.5 6.41666667,3.5 L21.5833333,3.5 C23.1941639,3.5 24.5,4.80583615 24.5,6.41666667 L24.5,21.5833333 C24.5,23.1941639 23.1941639,24.5 21.5833333,24.5 L5.83333333,24.5" id="路径" stroke="#6D8FA0" stroke-width="2.33333333" stroke-linecap="round" stroke-linejoin="round"></path>
                            <path d="M18.6666667,8.16666667 L18.6666667,9.33333333 C18.6666667,11.8159233 16.5778955,14 14,14 C11.4226712,14 9.33333333,11.813177 9.33333333,9.33333333 L9.33333333,8.16666667" id="路径" stroke="#6D8FA0" stroke-width="2.33333333" stroke-linecap="round" stroke-linejoin="round"></path>
                            <circle id="椭圆形" fill="#6D8FA0" fill-rule="nonzero" cx="14" cy="19.8333333" r="1.16666667"></circle>
                        </g>
                    </g>
                </g>
            </g>
        </g>
    </g>
</svg>