<?xml version="1.0" encoding="UTF-8"?>
<svg width="22px" height="19px" viewBox="0 0 22 19" version="1.1" xmlns="http://www.w3.org/2000/svg" xmlns:xlink="http://www.w3.org/1999/xlink">
    <!-- Generator: sketchtool 55.1 (78136) - https://sketchapp.com -->
    <title>7A027FF5-69E3-4E73-9209-A63E91D74355</title>
    <desc>Created with sketchtool.</desc>
    <defs>
        <path d="M8.6697118,13.2572115 L8.00024675,14.7435397 L18.5021283,14.7435397 C19.054413,14.7435397 19.5021283,15.1912549 19.5021283,15.7435397 C19.5021283,16.2958244 19.054413,16.7435397 18.5021283,16.7435397 L8.00024675,16.7435397 C7.71705645,16.7435397 7.4370947,16.6833996 7.17888753,16.5670991 C6.17176346,16.1134749 5.72306314,14.9293045 6.17668731,13.9221804 L7.22744335,11.5893204 C7.22901193,11.5858379 7.23059797,11.5823687 7.23220134,11.578913 L4.1705831,5 L2,5 C1.44771525,5 1,4.55228475 1,4 C1,3.44771525 1.44771525,3 2,3 L5.44580889,3 L9.28845424,11.2572115 L16.5538028,11.2572115 L20.2033901,4.88293573 C20.4778049,4.40364984 21.0888,4.23756902 21.5680859,4.51198383 C22.0473718,4.78639864 22.2134526,5.39739378 21.9390378,5.87667966 L17.7133192,13.2572115 L8.6697118,13.2572115 Z M9,22 C7.8954305,22 7,21.1045695 7,20 C7,18.8954305 7.8954305,18 9,18 C10.1045695,18 11,18.8954305 11,20 C11,21.1045695 10.1045695,22 9,22 Z M17,22 C15.8954305,22 15,21.1045695 15,20 C15,18.8954305 15.8954305,18 17,18 C18.1045695,18 19,18.8954305 19,20 C19,21.1045695 18.1045695,22 17,22 Z" id="path-1"></path>
    </defs>
    <g id="Desktop" stroke="none" stroke-width="1" fill="none" fill-rule="evenodd">
        <g id="UI-/-Desktop--2" transform="translate(-1147.000000, -31.000000)">
            <g id="Navbar-#09">
                <g id="Navbar">
                    <g id="icon" transform="translate(1146.000000, 28.000000)">
                        <g id="icon_Shop">
                            <mask id="mask-2" fill="white">
                                <use xlink:href="#path-1"></use>
                            </mask>
                            <use id="Mask" fill="#C2D1D9" fill-rule="nonzero" xlink:href="#path-1"></use>
                            <g id="↪🎨" mask="url(#mask-2)" fill="#042338">
                                <rect id="Atoms-/-Colors-/-Black" x="0" y="0" width="24" height="24"></rect>
                            </g>
                        </g>
                    </g>
                </g>
            </g>
        </g>
    </g>
</svg>