<?xml version="1.0" encoding="UTF-8"?>
<svg width="18px" height="12px" viewBox="0 0 18 12" version="1.1" xmlns="http://www.w3.org/2000/svg" xmlns:xlink="http://www.w3.org/1999/xlink">
    <!-- Generator: sketchtool 54.1 (76490) - https://sketchapp.com -->
    <title>AACFD731-8695-4938-9253-430D0C4E0AF1</title>
    <desc>Created with sketchtool.</desc>
    <defs>
        <path d="M20.0046024,18 C20.5543453,18 21,17.5561352 21,17 L21,17 C21,16.4477153 20.5443356,16 20.0046024,16 L11.9953976,16 C11.4456547,16 11,16.4438648 11,17 L11,17 C11,17.5522847 11.4556644,18 11.9953976,18 L20.0046024,18 Z M19.9931545,13 C20.5492199,13 21,12.5561352 21,12 L21,12 C21,11.4477153 20.5500512,11 19.9931545,11 L8.00684547,11 C7.45078007,11 7,11.4438648 7,12 L7,12 C7,12.5522847 7.44994876,13 8.00684547,13 L19.9931545,13 Z M3,7 C3,7.55228475 3.44494629,8 3.99339768,8 L20.0066023,8 C20.5552407,8 21,7.55613518 21,7 L21,7 C21,6.44771525 20.5550537,6 20.0066023,6 L3.99339768,6 C3.44475929,6 3,6.44386482 3,7 L3,7 Z" id="path-1"></path>
    </defs>
    <g id="Blog" stroke="none" stroke-width="1" fill="none" fill-rule="evenodd">
        <g id="Blog-Page" transform="translate(-328.000000, -3190.000000)">
            <g id="TabBar-Copy" transform="translate(0.000000, 3177.000000)">
                <g id="Item-5" transform="translate(313.000000, 0.000000)">
                    <g id="Icon" transform="translate(0.000000, 2.000000)">
                        <g id="Icon_More_Default" transform="translate(12.000000, 5.000000)">
                            <mask id="mask-2" fill="white">
                                <use xlink:href="#path-1"></use>
                            </mask>
                            <use id="Mask" fill="#6D8FA0" xlink:href="#path-1"></use>
                        </g>
                    </g>
                </g>
            </g>
        </g>
    </g>
</svg>