<?xml version="1.0" encoding="UTF-8"?>
<svg width="26px" height="23px" viewBox="0 0 26 23" version="1.1" xmlns="http://www.w3.org/2000/svg" xmlns:xlink="http://www.w3.org/1999/xlink">
    <!-- Generator: sketchtool 54.1 (76490) - https://sketchapp.com -->
    <title>F35864FB-676D-4139-87F9-DDD255F703A7</title>
    <desc>Created with sketchtool.</desc>
    <defs>
        <path d="M10.114664,15.466747 L9.33362141,17.2007965 L21.5858162,17.2007965 C22.2301484,17.2007965 22.7524828,17.7231309 22.7524828,18.3674631 C22.7524828,19.0117953 22.2301484,19.5341298 21.5858162,19.5341298 L9.33362141,19.5341298 C9.00323274,19.5341298 8.67661071,19.4639664 8.37536902,19.3282825 C7.20039097,18.7990543 6.67690727,17.4175221 7.20613545,16.2425441 L8.43201747,13.520874 C8.43384745,13.5168112 8.43569782,13.5127639 8.43756839,13.5087322 L4.86568031,5.83333337 L2.33333334,5.83333337 C1.68900113,5.83333337 1.16666667,5.3109989 1.16666667,4.66666668 C1.16666667,4.02233447 1.68900113,3.5 2.33333334,3.5 L6.35344375,3.5 L10.83653,13.1334136 L19.31277,13.1334136 L23.5706219,5.69675838 C23.8907725,5.13759151 24.6036002,4.94383055 25.1627671,5.26398117 C25.7219339,5.58413178 25.9156949,6.29695945 25.5955443,6.85612632 L20.6655392,15.466747 L10.114664,15.466747 Z M10.5,25.6666667 C9.21133558,25.6666667 8.16666667,24.6219977 8.16666667,23.3333333 C8.16666667,22.0446689 9.21133558,21 10.5,21 C11.7886644,21 12.8333333,22.0446689 12.8333333,23.3333333 C12.8333333,24.6219977 11.7886644,25.6666667 10.5,25.6666667 Z M19.8333333,25.6666667 C18.5446689,25.6666667 17.5,24.6219977 17.5,23.3333333 C17.5,22.0446689 18.5446689,21 19.8333333,21 C21.1219977,21 22.1666667,22.0446689 22.1666667,23.3333333 C22.1666667,24.6219977 21.1219977,25.6666667 19.8333333,25.6666667 Z" id="path-1"></path>
    </defs>
    <g id="Blog" stroke="none" stroke-width="1" fill="none" fill-rule="evenodd">
        <g id="Blog-Page" transform="translate(-174.000000, -3185.000000)">
            <g id="TabBar-Copy" transform="translate(0.000000, 3177.000000)">
                <g id="Item-3" transform="translate(163.500000, 0.000000)">
                    <g id="Icon" transform="translate(0.000000, 2.000000)">
                        <g id="Icon_Cart_Default" transform="translate(10.000000, 3.000000)">
                            <mask id="mask-2" fill="white">
                                <use xlink:href="#path-1"></use>
                            </mask>
                            <use id="Mask" fill="#6D8FA0" fill-rule="nonzero" xlink:href="#path-1"></use>
                        </g>
                    </g>
                </g>
            </g>
        </g>
    </g>
</svg>