<svg width="11" height="11" viewBox="0 0 11 11" fill="none" xmlns="http://www.w3.org/2000/svg">
<g clip-path="url(#clip0_4_1725)">
<path d="M0.500743 3.47079C0.52417 2.93945 0.610093 2.57416 0.733179 2.25763C0.860157 1.92164 1.05551 1.62083 1.31145 1.37077C1.56151 1.11681 1.86431 0.919478 2.1964 0.794484C2.51476 0.671398 2.87814 0.585474 3.40948 0.562048C3.94479 0.536637 4.11473 0.530761 5.47241 0.530761C6.8301 0.530761 7.00004 0.536637 7.53336 0.560064C8.0647 0.583491 8.42999 0.669491 8.74644 0.792501C9.08251 0.919479 9.38332 1.11483 9.63338 1.37077C9.88734 1.62083 10.0846 1.92363 10.2097 2.25572C10.3328 2.57416 10.4187 2.93747 10.4421 3.46881C10.4675 4.00411 10.4734 4.17405 10.4734 5.53174C10.4734 6.88943 10.4675 7.05937 10.4441 7.59269C10.4207 8.12403 10.3347 8.48932 10.2116 8.80585C10.0846 9.14183 9.88734 9.44264 9.63338 9.69271C9.38332 9.94666 9.08052 10.144 8.74843 10.269C8.42999 10.3921 8.06668 10.478 7.53527 10.5014C7.00202 10.5249 6.83201 10.5307 5.47432 10.5307C4.11663 10.5307 3.9467 10.5249 3.41337 10.5014C2.88203 10.478 2.51674 10.3921 2.20029 10.269C1.52824 10.0092 0.996902 9.47782 0.73707 8.80585C0.614061 8.48741 0.528061 8.12403 0.504634 7.59269C0.481207 7.05936 0.475332 6.88942 0.475332 5.53174C0.475332 4.17405 0.477316 4.00411 0.500743 3.47079ZM1.40126 7.55362C1.42278 8.04199 1.50481 8.30572 1.57319 8.48153C1.74122 8.91718 2.08697 9.26294 2.52262 9.43097C2.69844 9.49934 2.96407 9.58137 3.45054 9.60282C3.97798 9.62632 4.13617 9.63212 5.47043 9.63212C6.80469 9.63212 6.96486 9.62632 7.4904 9.60282C7.97878 9.58137 8.2425 9.49934 8.41832 9.43097C8.63511 9.35084 8.83244 9.22387 8.99262 9.05782C9.15866 8.89566 9.28564 8.70031 9.36577 8.48352C9.43414 8.3077 9.51617 8.04199 9.53761 7.5556C9.56112 7.02816 9.56692 6.86989 9.56692 5.53563C9.56692 4.20137 9.56112 4.0412 9.53761 3.51574C9.51617 3.02736 9.43414 2.76364 9.36577 2.58782C9.28564 2.37095 9.15866 2.17369 8.99063 2.01344C8.82855 1.84739 8.6332 1.72042 8.41633 1.64037C8.24052 1.572 7.97481 1.48996 7.48842 1.46844C6.96097 1.44502 6.80271 1.43914 5.46852 1.43914C4.13228 1.43914 3.97409 1.44502 3.44855 1.46844C2.96018 1.48996 2.69645 1.572 2.52064 1.64037C2.30384 1.72042 2.10651 1.84739 1.94634 2.01344C1.78029 2.1756 1.65331 2.37095 1.57319 2.58782C1.50481 2.76363 1.42278 3.02927 1.40126 3.51573C1.37784 4.04318 1.37196 4.20137 1.37196 5.53563C1.37196 6.86989 1.37784 7.02617 1.40126 7.55362Z" fill="white"/>
<path d="M5.47258 2.96289C6.89078 2.96289 8.04144 4.11348 8.04144 5.53175C8.04144 6.95003 6.89078 8.10061 5.47258 8.10061C4.0543 8.10061 2.90372 6.95003 2.90372 5.53175C2.90372 4.11348 4.0543 2.96289 5.47258 2.96289ZM5.47258 7.19811C6.39264 7.19811 7.13894 6.45188 7.13894 5.53175C7.13894 4.61162 6.39264 3.8654 5.47258 3.8654C4.55245 3.8654 3.80622 4.61162 3.80622 5.53175C3.80622 6.45188 4.55245 7.19811 5.47258 7.19811Z" fill="white"/>
<path d="M2.20065 2.86131C2.20065 3.19249 2.46918 3.46102 2.80043 3.46102C3.13162 3.46102 3.40015 3.19249 3.40015 2.86131C3.40015 2.53005 3.13162 2.2616 2.80043 2.2616C2.46918 2.2616 2.20065 2.53005 2.20065 2.86131Z" fill="white"/>
</g>
<defs>
<clipPath id="clip0_4_1725">
<rect width="10" height="10" fill="white" transform="matrix(-1 -8.7717e-08 -8.71295e-08 1 10.4902 0.530762)"/>
</clipPath>
</defs>
</svg>
