<svg width="49" height="49" viewBox="0 0 49 49" fill="none" xmlns="http://www.w3.org/2000/svg">
<path d="M15.6163 48.8546H49V7.32794C48.9735 3.29132 45.7084 0.0260558 41.6721 0H14.8023V16.3662C9.26332 16.873 4.36587 20.1707 1.81501 25.1131C-0.737627 30.0576 -0.589057 35.9586 2.20585 40.769C5.00278 45.5771 10.0591 48.6264 15.6163 48.8546ZM16.4305 1.62849H41.6723C44.8112 1.65088 47.3499 4.18931 47.3723 7.32846V47.2262H23.4822C27.9341 45.0705 31.1645 41.0072 32.262 36.1847C33.3612 31.3624 32.207 26.3018 29.1272 22.4299C26.0494 18.5602 21.3777 16.2984 16.4312 16.2844L16.4305 1.62849ZM16.4305 17.9134C20.3185 17.9134 24.0456 19.4584 26.7939 22.2065C29.542 24.9545 31.087 28.6819 31.087 32.5699C31.087 36.458 29.542 40.185 26.7939 42.9334C24.0459 45.6814 20.3185 47.2265 16.4305 47.2265C12.5424 47.2265 8.81542 45.6815 6.06706 42.9334C3.319 40.1853 1.77394 36.458 1.77394 32.5699C1.77394 28.6819 3.31895 24.9549 6.06706 22.2065C8.81511 19.4584 12.5424 17.9134 16.4305 17.9134Z" fill="white"/>
<path d="M16.4309 37.4565C18.4075 37.4565 20.1886 36.2657 20.9439 34.4397C21.7011 32.6158 21.2818 30.513 19.8854 29.1165C18.489 27.7201 16.3862 27.3007 14.5622 28.058C12.7363 28.8132 11.5454 30.5944 11.5454 32.571C11.5454 35.2682 13.7337 37.4565 16.4309 37.4565L16.4309 37.4565ZM16.4309 29.3141C17.7479 29.3141 18.9368 30.1079 19.4395 31.3253C19.9444 32.5426 19.6655 33.943 18.7332 34.8733C17.8029 35.8057 16.4024 36.0845 15.1851 35.5797C13.9678 35.0769 13.1739 33.8881 13.1739 32.5711C13.1739 30.7716 14.6314 29.3141 16.4309 29.3141L16.4309 29.3141Z" fill="white"/>
<path d="M21.4461 22.4164C22.468 22.9701 23.3148 23.7986 23.8889 24.8103L25.3219 24.0449C24.6196 22.7686 23.5733 21.7162 22.3011 21.0078C20.5036 20.0185 18.4802 19.5137 16.4302 19.5422V21.1706C18.1808 21.1462 19.909 21.5757 21.4459 22.4164H21.4461Z" fill="white"/>
<path d="M19.8668 25.1523C20.506 25.4393 21.0515 25.9014 21.4383 26.4877L22.8225 25.6246C22.2749 24.788 21.5013 24.1203 20.5915 23.703C19.2887 23.0964 17.8678 22.787 16.4307 22.7992V24.4277C17.6154 24.4053 18.7919 24.6536 19.8668 25.1523Z" fill="white"/>
<path d="M10.5927 44.1326C12.3596 45.1097 14.3464 45.6146 16.3656 45.5982H16.4308V43.9698C14.6822 43.9922 12.958 43.5626 11.4232 42.724C10.4013 42.1703 9.55449 41.3418 8.98043 40.3301L7.54736 41.0955C8.25577 42.3738 9.31223 43.4263 10.5927 44.1326H10.5927Z" fill="white"/>
<path d="M12.2702 41.437C13.5547 42.0437 14.9613 42.353 16.3821 42.3409H16.431V40.7124C15.2483 40.7287 14.0778 40.4823 13.003 39.9877C12.3638 39.6986 11.8204 39.2366 11.4316 38.6523L10.0474 39.5154C10.5929 40.3521 11.3644 41.0177 12.2702 41.437H12.2702Z" fill="white"/>
<path d="M44.1154 3.25781H18.0596V11.4003H44.1154V3.25781ZM42.4869 9.77177H19.6881V4.8863H42.4869V9.77177Z" fill="white"/>
<path d="M27.8301 16.2852H44.115V17.9136H27.8301V16.2852Z" fill="white"/>
<path d="M33.5303 22.7988H44.1152V24.4273H33.5303V22.7988Z" fill="white"/>
<path d="M34.3442 28.5H44.1152V30.1285H34.3442V28.5Z" fill="white"/>
<path d="M34.3442 34.1992H44.1152V35.8277H34.3442V34.1992Z" fill="white"/>
<path d="M33.5303 40.7129H44.1152V42.3414H33.5303V40.7129Z" fill="white"/>
</svg>
