<svg width="51" height="48" viewBox="0 0 51 48" fill="none" xmlns="http://www.w3.org/2000/svg">
<path d="M4.31312 47.177H20.3931C22.7722 47.177 24.7062 45.2429 24.7062 42.8638V26.7838C24.7062 24.4048 22.7722 22.4707 20.3931 22.4707H4.31312C1.93409 22.4707 0 24.4074 0 26.7838V42.8638C0 45.2429 1.93409 47.177 4.31312 47.177ZM1.39494 26.7835C1.39494 25.174 2.70352 23.8653 4.31312 23.8653H20.3931C22.0027 23.8653 23.3113 25.1739 23.3113 26.7835V42.8635C23.3113 44.473 22.0027 45.7817 20.3931 45.7817H4.31312C2.70358 45.7817 1.39494 44.4731 1.39494 42.8635V26.7835Z" fill="white"/>
<path d="M45.9361 22.4707H29.8561C27.4771 22.4707 25.543 24.4048 25.543 26.7838V42.8638C25.543 45.2429 27.4771 47.177 29.8561 47.177H45.9361C48.3151 47.177 50.2492 45.2429 50.2492 42.8638V26.7838C50.2492 24.4074 48.3151 22.4707 45.9361 22.4707ZM48.8543 42.8642C48.8543 44.4737 47.5457 45.7823 45.9361 45.7823H29.8561C28.2466 45.7823 26.9379 44.4738 26.9379 42.8642V26.7842C26.9379 25.1746 28.2465 23.866 29.8561 23.866H45.9361C47.5456 23.8686 48.8543 25.1772 48.8543 26.7842V42.8642Z" fill="white"/>
<path d="M25.6167 4.31313V17.1738C25.6167 19.5528 27.5508 21.4869 29.9298 21.4869H42.7905C45.1695 21.4869 47.1036 19.5528 47.1036 17.1738V4.31313C47.1036 1.93409 45.1695 0 42.7905 0H29.9298C27.5508 0 25.6167 1.93409 25.6167 4.31313ZM27.0116 4.31313C27.0116 2.70358 28.3202 1.39494 29.9298 1.39494H42.7905C44.4 1.39494 45.7087 2.70352 45.7087 4.31313V17.1738C45.7087 18.7833 44.4001 20.092 42.7905 20.092L29.9298 20.0893C28.3203 20.0893 27.0116 18.7808 27.0116 17.1712V4.31313Z" fill="white"/>
<path d="M20.3193 0H7.45863C5.0796 0 3.14551 1.93409 3.14551 4.31312V17.1738C3.14551 19.5528 5.0796 21.4869 7.45863 21.4869H20.3193C22.6983 21.4869 24.6324 19.5528 24.6324 17.1738V4.31312C24.6324 1.93409 22.6983 0 20.3193 0ZM23.2375 17.1714C23.2375 18.781 21.9289 20.0896 20.3193 20.0896H7.45863C5.84909 20.0896 4.54045 18.781 4.54045 17.1714V4.31346C4.54045 2.70392 5.84902 1.39527 7.45863 1.39527H20.3193C21.9288 1.39527 23.2375 2.70385 23.2375 4.31346V17.1714Z" fill="white"/>
</svg>
