<svg width="48" height="47" viewBox="0 0 48 47" fill="none" xmlns="http://www.w3.org/2000/svg">
<path d="M45.7552 0H2.24437C1.00689 0 0 1.00689 0 2.24437V35.6153C0 36.8509 1.00689 37.8597 2.24437 37.8597H18.0224L17.008 44.4596H14.2668C13.7962 44.4596 13.4137 44.8421 13.4137 45.3127C13.4137 45.7852 13.7962 46.1658 14.2668 46.1658H33.7312C34.2037 46.1658 34.5843 45.7833 34.5843 45.3127C34.5843 44.8421 34.2018 44.4596 33.7312 44.4596H30.9656L29.9512 37.8597H45.7556C46.9931 37.8597 48 36.8509 48 35.6153V2.24437C48 1.00689 46.9931 0 45.7556 0H45.7552ZM18.7366 44.4598L19.751 37.8598H28.2239L29.2402 44.4598H18.7366ZM46.2933 36.1515H1.70774V29.516H46.2933V36.1515ZM46.2933 27.8077H1.70774V1.70783H46.2933V27.8077Z" fill="white"/>
</svg>
