<svg width="58" height="52" viewBox="0 0 58 52" fill="none" xmlns="http://www.w3.org/2000/svg">
<path d="M28.9977 0.000655065C28.3396 0.000655065 27.8243 0.520388 27.8243 1.1835L27.8218 35.2709L20.738 28.1608C20.2738 27.6948 19.5392 27.6948 19.0723 28.1608C18.6055 28.6268 18.6055 29.3615 19.0723 29.8301L28.1687 38.9549C28.3906 39.1777 28.689 39.3031 28.9976 39.3031C29.3063 39.3031 29.6047 39.1802 29.8266 38.9549L38.9256 29.8222C39.3924 29.3537 39.3924 28.6215 38.9256 28.1529C38.4588 27.6844 37.7293 27.6844 37.2624 28.1529L30.1715 35.2702V1.18285C30.1715 0.522308 29.6537 0 28.993 0L28.9977 0.000655065ZM1.17847 25.8723C0.517831 25.8723 0 26.3894 0 27.05V50.8223C0 51.4828 0.517812 52 1.17847 52H56.8215C57.4822 52 58 51.4828 58 50.8223V27.05C58 26.3895 57.4822 25.8723 56.8215 25.8723C56.1609 25.8723 55.6431 26.3894 55.6431 27.05V49.6418H2.35473V27.05C2.35473 26.3895 1.83692 25.8723 1.17625 25.8723H1.17847Z" fill="white"/>
</svg>
