<?xml version="1.0" encoding="UTF-8"?>
<svg width="28px" height="28px" viewBox="0 0 28 28" version="1.1" xmlns="http://www.w3.org/2000/svg" xmlns:xlink="http://www.w3.org/1999/xlink">
    <!-- Generator: sketchtool 55.1 (78136) - https://sketchapp.com -->
    <title>C5911093-33E4-41A9-9FF0-9ADF5F65DDFD</title>
    <desc>Created with sketchtool.</desc>
    <defs>
        <linearGradient x1="0.744982069%" y1="100%" x2="99.2550179%" y2="0%" id="linearGradient-1">
          <stop stop-color="#777777" offset="0%"></stop>
          <stop stop-color="#6e6e6e" offset="100%"></stop>
        </linearGradient>
    </defs>
    <g id="Desktop" stroke="none" stroke-width="1" fill="none" fill-rule="evenodd">
        <g id="UI-/-Desktop--2" transform="translate(-614.000000, -776.000000)">
            <g id="Molecules-/-Features-Copy" transform="translate(540.000000, 745.000000)">
                <g id="Molecules-/-Features">
                    <g id="Atoms-/-Icons-/-Shipping" transform="translate(68.000000, 25.000000)">
                        <rect id="Rectangle" x="0" y="0" width="40" height="40"></rect>
                        <g id="Group-16" transform="translate(6.000000, 6.000000)" fill="url(#linearGradient-1)">
                            <path d="M26.7323711,15.408708 L26.7317426,15.408484 C26.7317426,18.771844 25.3958854,21.933828 22.9728854,24.311644 C21.864714,25.3988277 20.5890569,26.2618157 19.2028854,26.8797757 L22.4594569,26.8797757 C22.7753054,26.8797757 23.0308854,27.1302441 23.0308854,27.4397757 C23.0308854,27.7493075 22.775314,27.9997759 22.4594569,27.9997759 L5.332314,27.9997759 C5.01646543,27.9997759 4.76088543,27.7493075 4.76088543,27.4397757 C4.76088543,27.1302441 5.01645686,26.8797757 5.332314,26.8797757 L8.58802829,26.8797757 C7.20197114,26.261788 5.92628543,25.398828 4.81802829,24.311644 C2.39285714,21.933884 1.05802857,18.771844 1.05802857,15.408484 C1.05802857,13.563564 1.4598,11.779544 2.2232,10.152044 C0.901771429,9.615032 2.13162821e-14,8.337532 2.13162821e-14,6.886124 C2.13162821e-14,5.942216 0.375,5.054084 1.0558,4.3869 C1.7366,3.718624 2.64174257,3.351124 3.604914,3.351124 C4.85388543,3.351124 6.00568543,3.995348 6.65634257,5.007072 C7.22217114,4.62644 7.81482829,4.292848 8.42977114,4.00848 L8.42977114,0.56 C8.42977114,0.2504684 8.68534257,7.10542736e-15 9.00119971,7.10542736e-15 L18.7891997,7.10542736e-15 C19.1050483,7.10542736e-15 19.3606283,0.25046 19.3606283,0.56 L19.3606283,4.00848 C20.5739426,4.56848 21.7000569,5.319888 22.7000569,6.246296 C23.1632283,6.0406696 23.669914,5.932388 24.1855426,5.932388 C26.1731997,5.932388 27.7903997,7.518336 27.7903997,9.467388 C27.7903997,10.588452 27.2446569,11.638452 26.3406283,12.301268 C26.5984426,13.30434 26.7323711,14.346668 26.7323711,15.408708 Z M26.6475483,9.467388 L26.6475483,9.4675168 C26.6475483,8.1353328 25.542634,7.0525168 24.1866054,7.0525168 C23.9756626,7.0525168 23.7680683,7.0787668 23.5671769,7.12908 C24.6274626,8.31684 25.4377197,9.669744 25.973434,11.12552 C26.3997797,10.682532 26.6475483,10.090836 26.6475483,9.467388 Z M9.57269114,1.120028 L9.57606829,3.5492576 C9.91983971,3.4289472 10.269154,3.3239472 10.622954,3.2331656 L10.6240711,3.2331656 C10.7055426,3.212384 10.7858997,3.1926972 10.867374,3.1730104 C10.8874654,3.167542 10.907554,3.1631684 10.9276426,3.158792 C10.9957226,3.1423868 11.0626883,3.1270736 11.1307683,3.1128552 C11.168714,3.1041052 11.2077769,3.09645 11.2457226,3.088792 C11.299294,3.0778552 11.3517483,3.0658236 11.4053197,3.0559788 C11.4778654,3.0417604 11.5515254,3.0286368 11.6251854,3.0155104 C11.6463911,3.0122288 11.6664797,3.0078552 11.6876854,3.0045736 C11.7870226,2.9881684 11.886354,2.9717604 11.9867997,2.957542 C12.0013083,2.9553552 12.016934,2.9531684 12.0314426,2.9509788 C12.1162626,2.93895 12.2010826,2.9269184 12.2859054,2.9170736 C12.311574,2.913792 12.3372454,2.9116052 12.362914,2.9083236 C12.436574,2.8995736 12.510234,2.8919184 12.5850111,2.8842604 C12.6151454,2.8809816 12.646394,2.878792 12.6765283,2.8755104 C12.7457226,2.86895 12.8149197,2.8634816 12.8841169,2.8580104 C12.9175997,2.8547316 12.9521969,2.852542 12.9856797,2.8503552 C13.0515283,2.8459816 13.1184911,2.8416052 13.1854569,2.8383236 C13.2211711,2.8361368 13.2557683,2.83395 13.2914826,2.8328552 C13.3595626,2.8295736 13.4265283,2.8273868 13.4946083,2.8252 C13.5280911,2.8241052 13.5626883,2.8230104 13.5961711,2.8219184 C13.6854569,2.8197316 13.7736254,2.8186368 13.8629111,2.8186368 L13.896394,2.8186368 L13.9298769,2.8186368 C14.0180454,2.8186368 14.1062169,2.8197316 14.1943854,2.8219184 C14.231214,2.8230104 14.2691597,2.8241052 14.3059911,2.8252 C14.3684911,2.8273868 14.4321083,2.8284816 14.4946083,2.8317604 C14.5359026,2.83395 14.578314,2.8361368 14.6207254,2.8383236 C14.6787597,2.8405104 14.7356797,2.843792 14.7925997,2.8481684 C14.8372426,2.85145 14.8830026,2.8547316 14.9276454,2.8580104 C14.9800997,2.8623868 15.0325569,2.8667604 15.0850111,2.8711368 C15.1330026,2.8755104 15.1821083,2.8798868 15.2312169,2.8853552 C15.276974,2.8897316 15.3216169,2.8941052 15.3673769,2.8995736 C15.4220626,2.9061368 15.4778683,2.9127 15.5336711,2.9192604 C15.5626883,2.922542 15.5905883,2.9269184 15.6184911,2.9302 C16.510234,3.04724 17.3807769,3.252844 18.217834,3.545976 L18.217834,1.120028 L9.57269114,1.120028 Z M1.14294829,6.886348 L1.14294829,6.88632 C1.14294829,7.910084 1.79920543,8.806952 2.74897686,9.152584 C3.30926257,8.195572 4.00120543,7.306348 4.81706257,6.505716 C5.112834,6.21586 5.42086257,5.9424344 5.73894829,5.684308 C5.30477686,4.946032 4.49117686,4.471348 3.60389114,4.471348 C2.94654829,4.471348 2.329348,4.7229 1.863948,5.178992 C1.39855657,5.635084 1.14294829,6.241032 1.14294829,6.886348 Z M13.8952626,26.8800269 L13.8950626,26.8800269 C20.3427769,26.8800269 25.5893197,21.7339052 25.5882056,15.4075852 C25.5882056,9.1820652 20.505634,4.0982452 14.1964911,3.9407452 C14.0960426,3.9385584 13.9944797,3.9374636 13.894034,3.9374636 C13.7935826,3.9374636 13.6931369,3.9385584 13.5926911,3.9407452 C7.28354829,4.0981052 2.20097629,9.1820652 2.20097629,15.4087052 C2.20097629,21.733908 7.447834,26.8800269 13.8952626,26.8800269 Z M13.8952283,5.223708 C19.6206569,5.223708 24.2792283,9.792188 24.2792283,15.408708 C24.2792283,21.025228 19.6206569,25.593708 13.8952283,25.593708 C8.16979971,25.593708 3.51122829,21.025228 3.51122829,15.408708 C3.51122829,9.792188 8.16979971,5.223708 13.8952283,5.223708 Z M13.8952283,24.473708 C18.9900854,24.473708 23.1363711,20.407268 23.1363711,15.408708 C23.1363711,10.410148 18.9900854,6.343708 13.8952283,6.343708 C8.79922829,6.343708 4.65408543,10.410148 4.65408543,15.408708 C4.65408543,20.407268 8.80037114,24.473708 13.8952283,24.473708 Z M13.8952283,9.073708 C13.5793797,9.073708 13.3237997,8.823248 13.3237997,8.513708 L13.3237997,7.387156 C13.3237997,7.0776244 13.5793711,6.827156 13.8952283,6.827156 C14.2110769,6.827156 14.4666569,7.077616 14.4666569,7.387156 L14.4666569,8.513708 C14.4666569,8.8232396 14.2110854,9.073708 13.8952283,9.073708 Z M17.1240854,9.921548 C16.8506483,9.767324 16.7568969,9.4249792 16.9153797,9.155916 L17.4901511,8.182468 C17.6486369,7.9144996 17.9979711,7.8226232 18.2714083,7.9779364 C18.5448454,8.1332524 18.6385969,8.4756 18.480114,8.7435684 L17.9053426,9.7170164 C17.799314,9.89639 17.6073454,9.9970164 17.4097997,9.9970164 C17.3127026,9.9970164 17.2144883,9.9729532 17.1240854,9.921548 Z M19.9835111,12.521348 C19.7859683,12.521348 19.593994,12.4207216 19.4879683,12.241348 C19.329474,11.974452 19.4232369,11.6310264 19.696674,11.476808 L20.6899883,10.914624 C20.9634454,10.7592996 21.3127654,10.8511872 21.4701311,11.1191556 C21.6286254,11.3860516 21.5348626,11.7294772 21.2614254,11.8836956 L20.2681111,12.4458796 C20.1788254,12.4972848 20.0806111,12.521348 19.983514,12.521348 Z M22.0717997,14.848708 C22.3876483,14.848708 22.6432283,15.0991764 22.6432283,15.408708 C22.6432283,15.7182396 22.3876569,15.968708 22.0717997,15.968708 L20.9244854,15.968708 C20.6086369,15.968708 20.3530569,15.7182396 20.3530569,15.408708 C20.3530569,15.0991764 20.6086283,14.848708 20.9244854,14.848708 L22.0717997,14.848708 Z M21.2623683,18.933908 C21.5358083,19.088132 21.6295569,19.4304796 21.4721911,19.698448 C21.3661626,19.8778244 21.174194,19.978448 20.9766483,19.978448 C20.8795511,19.978448 20.7813369,19.9543848 20.690934,19.9029796 L19.6976197,19.3407956 C19.4252969,19.1865716 19.3315483,18.844224 19.488914,18.5762556 C19.6462854,18.3093792 19.9956197,18.2175056 20.2690569,18.371724 L21.2623711,18.933908 Z M17.9043711,21.100548 L18.4791426,22.073996 C18.6376369,22.341984 18.543874,22.6843148 18.2704369,22.839628 C18.180034,22.8910332 18.0818197,22.9150964 17.9847226,22.9150964 C17.7871797,22.9150964 17.5952054,22.81447 17.4891797,22.6350964 L16.9144083,21.6616484 C16.755914,21.3936604 16.8496769,21.0513296 17.123114,20.8960164 C17.3965711,20.740692 17.7458883,20.8325796 17.9043711,21.100548 Z M13.8952283,21.743708 C14.2110769,21.743708 14.4666569,21.994168 14.4666569,22.303708 L14.4666569,23.43026 C14.4666569,23.7397916 14.2110854,23.99026 13.8952283,23.99026 C13.5793797,23.99026 13.3237997,23.7398 13.3237997,23.43026 L13.3237997,22.303708 C13.3237997,21.9941764 13.5793711,21.743708 13.8952283,21.743708 Z M10.6666569,20.896148 C10.940094,21.050372 11.0338454,21.3927168 10.8753626,21.66178 L10.3005911,22.635228 C10.1945626,22.8146016 10.002594,22.915228 9.80504829,22.915228 C9.70795114,22.915228 9.60973686,22.8911648 9.519334,22.8397596 C9.24589686,22.6844436 9.15214543,22.342096 9.31062829,22.0741276 L9.88539971,21.1006796 C10.0438854,20.8327112 10.3932197,20.7408348 10.6666569,20.896148 Z M7.521514,18.371668 C7.79497114,18.2163436 8.14428829,18.3082312 8.30277114,18.5761996 C8.46126543,18.8430956 8.36750257,19.1865212 8.09406543,19.3407396 L7.10075114,19.9029236 C7.01034829,19.9543288 6.912134,19.978392 6.81503686,19.978392 C6.617494,19.978392 6.42551971,19.8777684 6.319494,19.698392 C6.16099971,19.431496 6.25476257,19.0880704 6.52819971,18.933852 L7.521514,18.371668 Z M7.43779971,15.408708 C7.43779971,15.7182396 7.18222829,15.968708 6.86637114,15.968708 L5.71905686,15.968708 C5.40320829,15.968708 5.14762829,15.7182396 5.14762829,15.408708 C5.14762829,15.0991764 5.40319971,14.848708 5.71905686,14.848708 L6.86637114,14.848708 C7.18221971,14.848708 7.43779971,15.099168 7.43779971,15.408708 Z M6.52808257,11.883508 C6.25464543,11.729284 6.16089686,11.3869364 6.320494,11.118968 C6.47786543,10.8520916 6.82719971,10.760218 7.10063686,10.9144364 L8.09395114,11.4766204 C8.366274,11.6308444 8.46002257,11.973192 8.30265686,12.2411604 C8.19662829,12.420534 8.00465971,12.5211604 7.807114,12.5211604 C7.71001686,12.5211604 7.61180257,12.4970972 7.52139971,12.445692 L6.52808543,11.883508 Z M9.88637114,9.716868 L9.31159971,8.74342 C9.15310543,8.475432 9.24686829,8.1331012 9.52030543,7.977788 C9.79376257,7.8224636 10.1430797,7.9143512 10.3015626,8.1823196 L10.876334,9.1557676 C11.0348283,9.4237556 10.9410654,9.7660864 10.6676283,9.9213996 C10.5772254,9.9728048 10.4790111,9.996868 10.381914,9.996868 C10.1843711,9.996868 9.99239686,9.8962416 9.88637114,9.716868 Z M19.7412283,16.456468 L19.7413683,16.456468 C19.6911397,16.7266176 19.4511797,16.915836 19.1766254,16.915836 C19.1420283,16.915836 19.1074283,16.9136492 19.0728311,16.907086 L13.891974,15.978494 L8.71111686,16.907086 C8.67651971,16.9125544 8.64191971,16.915836 8.60732257,16.915836 C8.33723686,16.915836 8.096174,16.7266232 8.04595114,16.456468 C7.99015114,16.152416 8.19552257,15.8603816 8.50577971,15.8046 L13.7903511,14.857416 C13.7936997,14.857416 13.7981626,14.857416 13.8015111,14.8563212 C13.8137883,14.8552292 13.8260654,14.8530396 13.8383426,14.8519476 C13.846154,14.8519476 13.8539683,14.8508528 13.8617797,14.8508528 C13.8718254,14.849758 13.8829854,14.849758 13.8930311,14.849758 C13.9030769,14.849758 13.9131197,14.849758 13.9231654,14.8508528 C13.932094,14.8508528 13.9399054,14.8508528 13.9477197,14.8519476 C13.9599969,14.8530396 13.972274,14.8541344 13.9845511,14.8563212 C13.989014,14.8563212 13.9923626,14.8563212 13.9968283,14.857416 L19.2813997,15.8046 C19.5927911,15.860376 19.7981483,16.152416 19.7412283,16.456468 Z" id="Combined-Shape"></path>
                        </g>
                    </g>
                </g>
            </g>
        </g>
    </g>
</svg>
