<svg width="11" height="11" viewBox="0 0 11 11" fill="none" xmlns="http://www.w3.org/2000/svg">
<path d="M9.76903 0.530762H1.21144C0.81311 0.530762 0.490234 0.853638 0.490234 1.25197V9.80956C0.490234 10.2079 0.81311 10.5308 1.21144 10.5308H9.76903C10.1674 10.5308 10.4902 10.2079 10.4902 9.80956V1.25197C10.4902 0.853638 10.1674 0.530762 9.76903 0.530762V0.530762ZM4.03729 8.08936H2.81956V4.4258H4.03729V8.08936ZM3.42847 3.92554H3.42053C3.0119 3.92554 2.74762 3.64424 2.74762 3.29268C2.74762 2.93318 3.01999 2.65967 3.43655 2.65967C3.85312 2.65967 4.10947 2.93318 4.1174 3.29268C4.1174 3.64424 3.85312 3.92554 3.42847 3.92554ZM8.42816 8.08936H7.21059V6.12944C7.21059 5.63689 7.03427 5.30096 6.59367 5.30096C6.25729 5.30096 6.05695 5.52756 5.9689 5.74629C5.93671 5.82457 5.92885 5.93398 5.92885 6.04346V8.08936H4.7112C4.7112 8.08936 4.72714 4.7695 4.7112 4.4258H5.92885V4.94452C6.09067 4.69489 6.3802 4.33981 7.02626 4.33981C7.82742 4.33981 8.42816 4.86342 8.42816 5.98868V8.08936Z" fill="white"/>
</svg>
