<?xml version="1.0" encoding="UTF-8"?>
<svg width="26px" height="24px" viewBox="0 0 26 24" version="1.1" xmlns="http://www.w3.org/2000/svg" xmlns:xlink="http://www.w3.org/1999/xlink">
    <!-- Generator: Sketch 53.1 (72631) - https://sketchapp.com -->
    <title>Linkedin</title>
    <desc>Created with Sketch.</desc>
    <defs>
        <linearGradient x1="0%" y1="92.0138889%" x2="100%" y2="7.98611111%" id="linearGradient-1">
            <stop stop-color="#1480C8" offset="0%"></stop>
            <stop stop-color="#04A3FF" offset="100%"></stop>
        </linearGradient>
    </defs>
    <g id="Symbols" stroke="none" stroke-width="1" fill="none" fill-rule="evenodd" stroke-linejoin="round">
        <g id="Organisms-/-Blog-/-Share" transform="translate(1.000000, -187.000000)" stroke="url(#linearGradient-1)">
            <g id="UI-/-Elements-/-Share">
                <path d="M0.605042017,195.055193 L5.28273245,195.055193 L5.28273245,210 L0.605042017,210 L0.605042017,195.055193 Z M18.0634318,194.911531 C21.38791,194.911531 24,197.061216 24,201.689895 L24,210 L18.6957983,210 L18.6957983,202.265856 C18.6957983,200.242121 17.8663052,198.859946 16.0414204,198.859946 C14.6459203,198.859946 13.869775,199.792766 13.5087015,200.691475 C13.3733803,201.013567 13.394199,201.462922 13.394199,201.912932 L13.394199,210 L8.13944158,210 C8.13944158,210 8.2071022,196.300265 8.13944158,195.055193 L13.394199,195.055193 L13.394199,197.400364 C13.704527,196.375048 15.3836812,194.911531 18.0634318,194.911531 Z M2.85735972,188 C4.58335592,188 5.64445649,189.115842 5.6782868,190.591168 C5.6782868,192.038942 4.58335592,193.185616 2.82483058,193.185616 L2.79100027,193.185616 C1.09818379,193.185616 0,192.043534 0,190.595104 C0,189.118466 1.13006235,188 2.85735972,188 Z" id="Linkedin"></path>
            </g>
        </g>
    </g>
</svg>