<?xml version="1.0" encoding="utf-8"?>
<!-- Generator: Adobe Illustrator 23.0.1, SVG Export Plug-In . SVG Version: 6.00 Build 0)  -->
<svg version="1.1" id="Layer_1" xmlns="http://www.w3.org/2000/svg" xmlns:xlink="http://www.w3.org/1999/xlink" x="0px" y="0px"
	 viewBox="0 0 755.32 156.32" style="enable-background:new 0 0 755.32 156.32;" xml:space="preserve">
<style type="text/css">
	.st0{fill:url(#SVGID_1_);}
	.st1{fill:url(#SVGID_2_);}
	.st2{fill:url(#SVGID_3_);}
	.st3{fill:#6D8FA0;}
	.st4{fill:#1480C9;}
</style>
<g>
	<g>
		<linearGradient id="SVGID_1_" gradientUnits="userSpaceOnUse" x1="84.2868" y1="74.4919" x2="148.23" y2="-2.3928">
			<stop  offset="0" style="stop-color:#1480C9"/>
			<stop  offset="1" style="stop-color:#05A3FF"/>
		</linearGradient>
		<path class="st0" d="M142.4,3.5H61.09c-5.16,0-9.35,4.18-9.35,9.35V53.5H92.4c5.16,0,9.35,4.18,9.35,9.35v40.65h40.65
			c5.16,0,9.35-4.18,9.35-9.35V12.85C151.75,7.68,147.56,3.5,142.4,3.5z"/>
		<g>
			<linearGradient id="SVGID_2_" gradientUnits="userSpaceOnUse" x1="13.3376" y1="140.4434" x2="68.8044" y2="87.0912">
				<stop  offset="0" style="stop-color:#27BBFC"/>
				<stop  offset="1" style="stop-color:#17D4FC"/>
			</linearGradient>
			<path class="st1" d="M51.75,94.15V53.5H11.09c-5.16,0-9.35,4.18-9.35,9.35v81.31c0,5.16,4.18,9.35,9.35,9.35H92.4
				c5.16,0,9.35-4.18,9.35-9.35V103.5H61.09C55.93,103.5,51.75,99.32,51.75,94.15z"/>
		</g>
		<linearGradient id="SVGID_3_" gradientUnits="userSpaceOnUse" x1="60.0289" y1="94.579" x2="93.9784" y2="61.9238">
			<stop  offset="0" style="stop-color:#1480C9"/>
			<stop  offset="1" style="stop-color:#3354AA"/>
		</linearGradient>
		<path class="st2" d="M92.4,53.5H51.75v40.65c0,5.16,4.18,9.35,9.35,9.35h40.65V62.85C101.75,57.68,97.56,53.5,92.4,53.5z"/>
	</g>
	<g>
		<path class="st3" d="M248.66,72.7c-3.11,0-5.35-2.14-11.19-2.14c-6.03,0-8.95,2.04-8.95,5.93c0,3.21,2.43,4.67,5.35,5.94
			c3.31,1.46,7.69,2.63,10.6,4.09c4.96,2.34,8.08,5.74,8.08,10.99c0,7.98-6.32,12.94-16.25,12.94c-4.38,0-8.56-0.68-12.36-2.43
			c-2.04-0.97-3.7-2.53-3.7-4.38c0-1.56,1.17-2.82,2.82-2.82c1.26,0,2.24,0.49,3.89,1.46c2.82,1.65,5.64,2.43,9.05,2.43
			c5.74,0,9.15-1.95,9.15-6.62c0-3.7-2.72-5.35-6.23-6.91c-2.82-1.26-7.1-2.43-10.61-4.09c-4.18-1.95-7.2-5.25-7.2-10.6
			c0-7.39,5.74-11.87,16.05-11.87c3.99,0,7.39,0.49,10.12,1.46c2.82,0.97,4.09,2.33,4.09,3.89S250.21,72.7,248.66,72.7z"/>
		<path class="st3" d="M265.88,71.24c4.18-4.09,10.12-6.52,16.73-6.52c6.71,0,12.55,2.43,16.73,6.52c4.09,3.99,6.62,9.73,6.62,16.35
			c0,6.52-2.53,12.26-6.62,16.25c-4.18,4.18-10.02,6.62-16.73,6.62c-6.62,0-12.55-2.43-16.73-6.62c-4.09-3.99-6.52-9.73-6.52-16.25
			C259.36,80.97,261.79,75.23,265.88,71.24z M270.74,99.46c2.92,3.21,7.1,5.16,11.87,5.16c4.86,0,9.05-1.95,11.97-5.16
			c2.72-3.02,4.28-7.2,4.28-11.87s-1.56-8.85-4.28-11.87c-2.92-3.21-7.1-5.16-11.97-5.16c-4.77,0-8.95,1.95-11.87,5.16
			c-2.72,3.02-4.38,7.2-4.38,11.87S268.02,96.44,270.74,99.46z"/>
		<path class="st3" d="M337.97,65.6c1.46,0,2.72,1.26,2.72,2.72c0,1.65-1.26,2.92-2.72,2.92h-12.36v35.8c0,1.85-1.56,3.41-3.5,3.41
			c-1.95,0-3.6-1.56-3.6-3.41v-35.8h-4.67c-1.56,0-2.82-1.26-2.82-2.92c0-1.46,1.26-2.72,2.82-2.72h4.67v-7.88
			c0-8.17,2.92-15.37,13.13-15.37c2.72,0,6.32,0.49,9.24,1.85c2.53,1.17,3.89,2.72,3.89,4.67c0,1.46-1.17,2.82-2.72,2.82
			c-2.43,0-4.18-2.92-9.05-2.92c-5.64,0-7.39,3.11-7.39,9.44v7.39H337.97z"/>
		<path class="st3" d="M350.23,65.6v-7.3c0-1.95,1.56-3.5,3.6-3.5c1.85,0,3.5,1.56,3.5,3.5v7.3h13.43c1.56,0,2.82,1.26,2.82,2.72
			c0,1.56-1.26,2.92-2.82,2.92h-13.43v23.55c0,6.13,1.95,9.44,7.98,9.44c4.86,0,7.1-3.21,9.05-3.21c1.65,0,2.63,1.26,2.63,2.82
			c0,1.95-2.04,3.7-4.67,4.86c-2.43,1.07-5.25,1.75-8.27,1.75c-10.21,0-13.81-6.42-13.81-14.98V71.24h-4.18
			c-1.56,0-2.82-1.36-2.82-2.92c0-1.46,1.26-2.72,2.82-2.72H350.23z"/>
		<path class="st3" d="M423.4,101.3l11.19-33.37c0.58-1.85,1.17-3.21,3.41-3.21c1.95,0,3.31,1.17,3.31,3.21
			c0,0.88-0.1,1.46-0.39,2.33l-12.65,36c-0.58,1.85-1.27,4.09-4.87,4.09c-3.5,0-4.38-1.95-4.86-4.09l-10.02-29.58l-10.12,29.58
			c-0.49,2.14-1.85,4.09-4.67,4.09c-3.11,0-4.18-1.56-4.96-4.09l-12.45-36c-0.29-0.88-0.39-1.36-0.39-2.14
			c0-2.33,1.85-3.41,3.7-3.41c2.14,0,2.82,1.65,3.41,3.5l10.99,33.08l10.9-33.27c0.49-1.56,1.17-3.31,3.89-3.31
			c2.63,0,3.31,1.95,3.7,3.31L423.4,101.3z"/>
		<path class="st3" d="M452.98,86.03c5.64-2.24,13.13-2.72,19.65-3.21v-1.36c0-3.89-0.58-6.23-2.24-8.17
			c-1.95-2.24-4.96-2.82-7.88-2.82c-3.7,0-6.23,0.68-8.76,1.65c-2.53,0.97-3.7,1.95-4.86,1.95c-1.65,0-2.72-1.36-2.72-2.82
			c0-1.85,2.24-3.11,4.77-4.18c3.41-1.46,7.49-2.34,12.36-2.34c4.18,0,9.44,0.78,12.84,4.67c2.24,2.63,3.7,6.32,3.7,11.97v25.68
			c0,1.85-1.65,3.41-3.6,3.41c-1.85,0-3.5-1.36-3.6-3.11c-4.28,2.24-8.08,3.11-12.84,3.11c-7.78,0-15.76-4.09-15.76-12.94
			C444.03,91.48,447.62,88.07,452.98,86.03z M472.63,101.99V88.27c-4.57,0.19-10.02,0.49-14.5,1.75c-4.18,1.07-7.39,3.21-7.39,7.1
			c0,5.45,5.64,7.69,11.09,7.69C465.53,104.81,469.22,103.74,472.63,101.99z"/>
		<path class="st3" d="M513.98,66.77c1.85,1.17,2.82,2.33,2.82,3.99c0,1.95-1.36,3.31-3.21,3.31c-2.63,0-4.09-2.82-8.85-2.82
			c-3.21,0-5.93,1.26-7.88,3.89c-2.43,3.31-3.31,8.56-3.31,12.84v19.07c0,1.85-1.65,3.41-3.6,3.41c-1.95,0-3.6-1.56-3.6-3.41V68.13
			c0-1.95,1.65-3.41,3.6-3.41c1.95,0,3.6,1.46,3.6,3.41v3.7c2.24-4.67,6.52-7.1,12.36-7.1C509.11,64.72,512.13,65.6,513.98,66.77z"
			/>
		<path class="st3" d="M559.22,103.44c0,1.46-1.07,2.43-3.6,3.79c-3.5,1.85-8.46,3.21-13.91,3.21c-7.3,0-13.33-2.63-17.42-7.2
			c-3.7-3.99-5.74-9.63-5.74-16.25c0-6.32,2.14-11.87,5.84-15.86c3.7-3.99,9.05-6.42,16.05-6.42c6.71,0,11.87,2.43,15.27,6.13
			c3.79,3.99,5.35,9.15,5.35,14.3c0,2.24-1.26,4.38-3.79,4.38h-31.33c0.39,3.89,1.56,7.1,3.79,9.73c2.82,3.31,7.1,5.35,12.26,5.35
			c4.09,0,7.69-0.88,10.51-2.33c1.85-0.97,2.82-1.75,3.99-1.75C558.05,100.53,559.22,101.89,559.22,103.44z M554.16,84.38
			c-0.19-3.99-1.46-7.3-3.6-9.63c-2.24-2.43-5.74-4.28-10.12-4.28c-4.87,0-8.56,1.85-10.99,4.67c-2.04,2.33-3.21,5.74-3.5,9.24
			H554.16z"/>
		<path class="st4" d="M612.05,74.35l-12.75,9.44l9.63,16.54c0.88,1.56,1.26,2.72,1.26,3.99c0,3.6-2.63,6.23-6.32,6.23
			c-2.72,0-4.77-1.46-5.93-3.99l-8.76-15.66l-6.62,4.86l-1.26,8.95c-0.58,3.99-3.31,5.74-6.42,5.74c-3.31,0-6.23-1.75-6.23-5.93
			c0-1.56,0.19-2.92,0.49-4.57l7.2-51.66c0.58-4.09,3.31-5.93,6.42-5.93c3.31,0,6.13,1.85,6.13,6.03c0,1.65-0.1,3.02-0.29,4.57
			l-3.99,28.51l20.92-16.05c1.26-0.88,2.33-1.26,3.5-1.26c3.11,0,5.55,2.53,5.55,5.64C614.58,71.82,613.61,73.28,612.05,74.35z"/>
		<path class="st4" d="M647.66,90.02c-3.79,1.95-8.27,2.92-12.55,3.41c-1.75,0.1-3.6,0.29-5.16,0.29c0.39,1.65,1.17,3.11,2.33,4.18
			c1.56,1.65,3.79,2.63,7.1,2.63c2.43,0,4.18-0.49,5.64-0.97c1.46-0.58,2.53-1.17,3.89-1.17c3.21,0,4.77,2.43,4.77,4.77
			c0,2.92-2.43,4.67-5.74,5.74c-3.41,1.17-7.69,1.46-11.09,1.46c-5.06,0-10.31-1.36-14.11-4.77c-3.7-3.21-6.13-8.17-6.13-15.18
			c0-7.01,2.24-13.23,6.71-18.19c4.57-5.25,11.38-8.27,19.07-8.27c4.47,0,8.17,1.26,10.6,3.21c2.72,2.14,4.18,5.35,4.18,8.85
			C657.2,82.43,653.21,87.2,647.66,90.02z M629.67,85.93c1.07,0,2.33-0.1,3.7-0.19c2.33-0.29,4.77-0.68,6.91-1.56
			c3.41-1.36,5.74-3.7,5.74-6.71c0-0.97-0.39-1.95-1.07-2.53c-0.68-0.68-1.75-1.17-3.21-1.17c-3.11,0-6.13,1.56-8.37,4.28
			C631.51,80.09,630.25,82.92,629.67,85.93z"/>
		<path class="st4" d="M693.59,90.02c-3.79,1.95-8.27,2.92-12.55,3.41c-1.75,0.1-3.6,0.29-5.16,0.29c0.39,1.65,1.17,3.11,2.34,4.18
			c1.56,1.65,3.79,2.63,7.1,2.63c2.43,0,4.18-0.49,5.64-0.97c1.46-0.58,2.53-1.17,3.89-1.17c3.21,0,4.77,2.43,4.77,4.77
			c0,2.92-2.43,4.67-5.74,5.74c-3.41,1.17-7.69,1.46-11.09,1.46c-5.06,0-10.31-1.36-14.11-4.77c-3.7-3.21-6.13-8.17-6.13-15.18
			c0-7.01,2.24-13.23,6.71-18.19c4.57-5.25,11.38-8.27,19.07-8.27c4.48,0,8.17,1.26,10.61,3.21c2.72,2.14,4.18,5.35,4.18,8.85
			C703.12,82.43,699.13,87.2,693.59,90.02z M675.59,85.93c1.07,0,2.33-0.1,3.7-0.19c2.33-0.29,4.77-0.68,6.91-1.56
			c3.41-1.36,5.74-3.7,5.74-6.71c0-0.97-0.39-1.95-1.07-2.53c-0.68-0.68-1.75-1.17-3.21-1.17c-3.11,0-6.13,1.56-8.37,4.28
			C677.44,80.09,676.17,82.92,675.59,85.93z"/>
		<path class="st4" d="M743.6,103.54c-5.25,4.48-12.26,6.62-19.94,6.62c-0.68,0-1.75,0-2.82-0.19l-2.33,16.83
			c-0.58,3.99-3.31,5.74-6.42,5.74c-3.31,0-6.23-1.75-6.23-6.03c0-1.46,0.19-2.92,0.39-4.47l7.39-52.54
			c0.58-3.7,3.02-5.35,5.84-5.35c2.14,0,4.09,0.88,5.06,2.72c2.82-1.65,6.32-2.82,10.8-2.82c4.67,0,8.76,1.75,11.67,4.86
			c3.31,3.31,5.16,8.27,5.16,14.3C752.16,92.35,748.85,99.16,743.6,103.54z M736.98,77.47c-1.26-1.56-3.02-2.53-5.35-2.53
			c-2.24,0-4.48,0.88-6.13,2.04l-3.21,22.57c1.07,0.2,2.14,0.29,2.92,0.29c3.89,0,7.2-1.26,9.54-3.6c2.82-2.82,4.28-7.1,4.28-12.06
			C739.02,81.55,738.34,79.12,736.98,77.47z"/>
	</g>
</g>
</svg>
