<?xml version="1.0" encoding="UTF-8"?>
<svg width="28px" height="29px" viewBox="0 0 28 29" version="1.1" xmlns="http://www.w3.org/2000/svg" xmlns:xlink="http://www.w3.org/1999/xlink">
    <!-- Generator: sketchtool 55.1 (78136) - https://sketchapp.com -->
    <title>D30949BC-4A13-4CCF-AD19-3F3ADC068A49</title>
    <desc>Created with sketchtool.</desc>
    <defs>
        <linearGradient x1="3.65889812%" y1="100%" x2="96.3411019%" y2="0%" id="linearGradient-1">
          <stop stop-color="#777777" offset="0%"></stop>
          <stop stop-color="#6e6e6e" offset="100%"></stop>
        </linearGradient>
    </defs>
    <g id="Desktop" stroke="none" stroke-width="1" fill="none" fill-rule="evenodd">
        <g id="UI-/-Desktop--2" transform="translate(-1004.000000, -776.000000)">
            <g id="Molecules-/-Features-Copy-2" transform="translate(930.000000, 745.000000)">
                <g id="Molecules-/-Features">
                    <g id="Atoms-/-Icons-/-Shipping" transform="translate(68.000000, 25.000000)">
                        <rect id="Rectangle" x="0" y="0" width="40" height="40"></rect>
                        <g id="Group-16" transform="translate(6.000000, 6.000000)" fill="url(#linearGradient-1)">
                            <path d="M25.2172794,8.74813147 C24.3342892,5.381675 22.0000453,2.58307265 18.846938,1.10748441 C15.6937282,-0.369161471 12.0470355,-0.369161471 8.89396234,1.10748441 C5.74075259,2.58279971 3.40664527,5.38276676 2.52362088,8.74813147 C1.01906478,9.26122676 0.00532682927,10.6725715 0,12.2612256 L0,15.459755 C0.0026675122,17.5201538 1.67262576,19.1888138 3.7349282,19.1915432 L5.32887941,19.1915432 C6.92149893,22.9830374 10.1493184,25.5886021 13.872294,25.5886021 C17.5952697,25.5886021 20.8227819,22.9831397 22.4157087,19.1915432 L23.9282892,19.1915432 C23.3480745,21.2106256 22.3129965,23.0696962 20.9044599,24.6278491 C20.701716,24.5612139 20.4882843,24.5252301 20.2748697,24.5225655 C19.2544745,24.5145683 18.3688209,25.2262419 18.156738,26.2231255 C17.9433233,27.2213396 18.4621872,28.2301981 19.398538,28.6393366 C20.3335672,29.0471448 21.4273087,28.7419556 22.0155477,27.9090149 C22.6051184,27.0760666 22.5250794,25.9432584 21.8261414,25.1995961 C23.394756,23.4390572 24.5045121,21.317349 25.0540292,19.0249843 C26.6439511,18.5638502 27.7390584,17.1125196 27.7443853,15.4600314 L27.7443853,12.2615019 C27.7390482,10.6715514 26.7239901,9.26020665 25.2181023,8.74840782 L25.2172794,8.74813147 Z M13.8714745,1.06620206 C16.1443233,1.05820488 18.3600111,1.78055735 20.1926453,3.12390559 C22.024016,4.46861853 23.376515,6.36508206 24.0501575,8.53325853 C24.0354848,8.53325853 24.0234789,8.52925994 24.0088097,8.52925994 L22.4148584,8.52925994 C20.8222355,4.73776582 17.5944194,2.13220112 13.8714404,2.13220112 C10.1484648,2.13220112 6.920956,4.73766347 5.32802576,8.52925994 L3.73407454,8.52925994 C3.72073698,8.52925994 3.70739941,8.53325853 3.69405844,8.53325853 C4.36899502,6.36491147 5.72016576,4.46984676 7.55293649,3.12629382 C9.38430722,1.78158088 11.598595,1.05924206 13.8713755,1.06584945 L13.8714745,1.06620206 Z M22.2653965,11.9650844 C18.1585477,11.6478961 17.796938,7.26844912 17.7836209,7.07261382 C17.7662814,6.82472865 17.580877,6.62082794 17.3341184,6.58217265 C17.0886916,6.54352418 16.8485916,6.67946253 16.7565672,6.90868876 C14.306294,12.9925476 7.66783551,12.8072888 5.40564039,12.5555005 C5.92316234,7.29114759 9.51925015,3.19839465 13.8715428,3.19839465 C18.0599331,3.19839465 21.5466126,6.98852406 22.2653965,11.9649241 L22.2653965,11.9650844 Z M4.267816,18.1250256 L3.73427941,18.1250256 C2.26171844,18.1236916 1.0679282,16.9309079 1.06659649,15.4595844 L1.06659649,12.261055 C1.0679282,10.7897315 2.26171844,9.59694441 3.73427941,9.59561382 L4.267816,9.59561382 L4.267816,18.1250256 Z M13.8714745,24.5220844 C9.16440137,24.5220844 5.33488917,19.7387903 5.33488917,13.8603197 C5.33488917,13.7763596 5.34288966,13.6963946 5.3455599,13.6137651 C5.77105746,13.6537476 6.31927698,13.6897315 6.96218429,13.6897315 C9.86595502,13.6897315 14.5505258,12.9660621 17.0486721,8.72800206 L17.0486721,8.72666806 C17.3487877,9.92477747 18.0303794,10.9922845 18.9907453,11.7692798 C19.9511111,12.5449104 21.1395745,12.9887128 22.374716,13.0300292 C22.3920555,13.3045705 22.4080599,13.5804492 22.4080599,13.8603163 C22.4080599,19.7387869 18.5785477,24.5220844 13.8714745,24.5220844 L13.8714745,24.5220844 Z M20.2739136,27.7206206 C19.8417575,27.7206206 19.453616,27.4607329 19.2882111,27.0622456 C19.1228131,26.6637515 19.2148511,26.2053126 19.5189653,25.9001303 C19.8244145,25.5962717 20.2832628,25.5042974 20.682058,25.6695701 C21.0808872,25.8348291 21.3409799,26.2226512 21.3409799,26.6544442 C21.3409799,27.2435195 20.8634775,27.7206206 20.2739067,27.7206206 L20.2739136,27.7206206 Z M26.6763526,15.4594138 C26.6750175,16.9307374 25.4812306,18.1235244 24.0086697,18.124855 L23.4751331,18.124855 L23.4751331,9.59544324 L24.0086697,9.59544324 C25.4812306,9.59677382 26.6750209,10.7895609 26.6763526,12.2608844 L26.6763526,15.4594138 Z" id="Fill-1"></path>
                        </g>
                    </g>
                </g>
            </g>
        </g>
    </g>
</svg>
