<?xml version="1.0" encoding="UTF-8"?>
<svg width="30px" height="22px" viewBox="0 0 30 22" version="1.1" xmlns="http://www.w3.org/2000/svg" xmlns:xlink="http://www.w3.org/1999/xlink">
    <!-- Generator: sketchtool 55.1 (78136) - https://sketchapp.com -->
    <title>F73D475D-A0BF-4621-955E-F7B9680CCB4D</title>
    <desc>Created with sketchtool.</desc>
    <defs>
        <linearGradient x1="0%" y1="77.4806875%" x2="100%" y2="22.5193125%" id="linearGradient-1">
          <stop stop-color="#777777" offset="0%"></stop>
          <stop stop-color="#6e6e6e" offset="100%"></stop>
        </linearGradient>
    </defs>
    <g id="Mobile" stroke="none" stroke-width="1" fill="none" fill-rule="evenodd">
        <g id="SoftwareKeep-Homepage" transform="translate(-79.000000, -552.000000)" fill="url(#linearGradient-1)">
            <g id="Value-Proposition" transform="translate(79.000000, 552.000000)">
                <path d="M19.1501202,17.7444847 C19.1430718,17.8660168 19.0918125,17.9814613 19.0052388,18.0680261 C18.9118186,18.1614368 18.7847797,18.2137458 18.6527606,18.2137458 L12.6744997,18.2137458 C12.399251,18.2137458 12.1763113,17.9908061 12.1763113,17.7155574 C12.1763113,17.4403087 12.399251,17.217369 12.6744997,17.217369 L18.1547284,17.217369 L18.1547284,15.2246154 L11.2996559,15.2246154 C12.2586646,16.4201081 12.4479603,18.0604154 11.7841342,19.4428762 C11.1213922,20.8240936 9.7241371,21.7033922 8.19080087,21.7033922 C6.65746464,21.7033922 5.26005014,20.8240936 4.59746754,19.4428762 C3.93360957,18.0605429 4.1229371,16.4202675 5.0819458,15.2246154 L3.20875739,15.2246154 L3.20875739,17.217369 L3.7069458,17.217369 C3.98219449,17.217369 4.2051342,17.4403087 4.2051342,17.7155574 C4.2051342,17.9908061 3.98219449,18.2137458 3.7069458,18.2137458 L2.71056899,18.2137458 C2.57854029,18.2137458 2.45150145,18.1614464 2.35809072,18.0680261 C2.26468,17.9746058 2.21214783,17.847567 2.21214783,17.7155478 L2.21214783,9.24650435 C2.21214783,8.97125565 2.43531072,8.74831594 2.71055942,8.74831594 C2.98580812,8.74831594 3.20874783,8.97125565 3.20874783,9.24650435 L3.20874783,14.2283884 L6.26764058,14.2283884 C7.46313333,13.5645623 8.91784348,13.5645623 10.1134957,14.2283884 L18.1543362,14.2283884 L18.1543362,2.76989565 C18.1543362,1.94416232 17.4855043,1.27533043 16.659771,1.27533043 L3.20852464,1.27533043 L3.20852464,1.77351884 C3.20852464,2.04876754 2.98558493,2.27170725 2.71033623,2.27170725 C2.43508754,2.27170725 2.21214783,2.04876754 2.21214783,1.77351884 L2.21214783,0.777142029 C2.21214783,0.501893333 2.43508754,0.278953623 2.71033623,0.278953623 L16.6596116,0.278953623 C17.3197072,0.278953623 17.953658,0.541773913 18.4206957,1.00881159 C18.8877588,1.47584928 19.1505536,2.1098 19.1505536,2.76989565 L19.1505536,3.16844638 L23.7986116,3.16844638 C24.831113,3.16844638 25.7552406,3.80364058 26.1251594,4.76762319 C26.7229855,6.3917971 27.8040528,9.30606377 28.117913,10.5714783 L28.1183243,10.5716632 C28.5368026,12.3201849 29.1147012,17.446542 29.1147012,17.6607646 C29.1308951,17.80152 29.084813,17.9435029 28.9901557,18.0493675 C28.8942452,18.1552322 28.7584893,18.2150116 28.6165064,18.2137681 L27.6201296,18.2137681 C27.3448809,18.2137681 27.1219412,17.9908284 27.1219412,17.7155797 C27.1219412,17.440331 27.3448809,17.2173913 27.6201296,17.2173913 L28.0585354,17.2173913 C27.904089,15.8224638 27.4706571,12.1656812 27.1468426,10.8106087 C26.8379499,9.60985507 25.7668687,6.72549565 25.154089,5.12631884 C24.9336426,4.54717681 24.3781586,4.16482319 23.7591614,4.16482319 L19.1509586,4.16482319 L19.1509586,17.6283845 C19.1615371,17.1431033 19.2609338,16.6553852 19.454058,16.1897043 C20.0706,14.7013884 21.5240667,13.7298493 23.1357101,13.7298493 L23.1356464,13.7298493 C24.1930493,13.7298493 25.2068348,14.1496029 25.9541333,14.8968696 C26.7014319,15.6441362 27.1211536,16.6579536 27.1211536,17.7153565 C27.1211536,19.3270319 26.1497101,20.7804986 24.6613623,21.3970087 C23.171771,22.014761 21.4567594,21.6735072 20.3171594,20.5339072 C19.5622527,19.7790407 19.1576711,18.7716174 19.1501202,17.7444847 Z M8.19037681,20.7045507 L8.1904087,20.7045507 C9.84066377,20.7045507 11.1795391,19.3656435 11.1795391,17.7153884 C11.1795391,16.5060261 10.4509246,15.416229 9.33373913,14.9541652 C8.21773333,14.4908261 6.93117971,14.7473971 6.07678261,15.6017942 C5.22240464,16.4562232 4.96584638,17.7428087 5.42915362,18.8587507 C5.89124928,19.9759362 6.98101449,20.7045507 8.19037681,20.7045507 Z M7.69202899,3.76614493 L2.71014493,3.76614493 C2.43489623,3.76614493 2.21195652,3.54320522 2.21195652,3.26795652 C2.21195652,2.99270783 2.43489623,2.76976812 2.71014493,2.76976812 L7.69202899,2.76976812 C7.96727768,2.76976812 8.19021739,2.99270783 8.19021739,3.26795652 C8.19021739,3.54320522 7.96727768,3.76614493 7.69202899,3.76614493 Z M0.717391304,3.76614493 C0.442142609,3.76614493 0.219202899,3.54320522 0.219202899,3.26795652 C0.219202899,2.99270783 0.442142609,2.76976812 0.717391304,2.76976812 L1.21557971,2.76976812 C1.49082841,2.76976812 1.71376812,2.99270783 1.71376812,3.26795652 C1.71376812,3.54320522 1.49082841,3.76614493 1.21557971,3.76614493 L0.717391304,3.76614493 Z M8.6884058,6.7555942 C8.96365449,6.7555942 9.1865942,6.97853391 9.1865942,7.25378261 C9.1865942,7.5290313 8.96365449,7.75197101 8.6884058,7.75197101 L8.19021739,7.75197101 C7.9149687,7.75197101 7.69202899,7.5290313 7.69202899,7.25378261 C7.69202899,6.97853391 7.9149687,6.7555942 8.19021739,6.7555942 L8.6884058,6.7555942 Z M7.19368116,7.25362319 L7.19368116,7.25360406 C7.19368116,7.38563275 7.14138174,7.51267159 7.04796145,7.60608232 C6.95454116,7.69949304 6.82750232,7.75180203 6.69548319,7.75180203 L1.71359913,7.75180203 C1.43835043,7.75180203 1.21541072,7.52886232 1.21541072,7.25361362 C1.21541072,6.97836493 1.43835043,6.75542522 1.71359913,6.75542522 L6.69548319,6.75542522 C6.82751188,6.75542522 6.95455072,6.80772464 7.04796145,6.90114493 C7.14137217,6.99456522 7.19368116,7.12160406 7.19368116,7.25362319 Z M9.18643478,5.26086957 L9.18643478,5.26085043 C9.18643478,5.39287913 9.13413536,5.51991797 9.04071507,5.6133287 C8.94729478,5.70673942 8.82025594,5.75904841 8.68823681,5.75904841 L0.717222319,5.75904841 C0.441973623,5.75904841 0.219033913,5.5361087 0.219033913,5.26086 C0.219033913,4.9856113 0.441973623,4.76267159 0.717222319,4.76267159 L8.68823681,4.76267159 C8.82026551,4.76267159 8.94730435,4.81497101 9.04071507,4.9083913 C9.1341258,5.00181159 9.18643478,5.12885043 9.18643478,5.26086957 Z M25.6268116,10.2427536 L25.6266617,10.243082 C25.9019104,10.243082 26.1248501,10.4660217 26.1248501,10.7412704 C26.1248501,11.0165191 25.9019104,11.2394588 25.6266617,11.2394588 L21.1431255,11.2394588 C21.0110968,11.2394588 20.884058,11.1871594 20.7906472,11.0937391 C20.6972365,11.0003188 20.6449275,10.87328 20.6449275,10.7412609 L20.6449275,5.26102899 C20.6449275,4.98578029 20.8678672,4.76284058 21.1431159,4.76284058 L24.1322464,4.76284058 C24.4074951,4.76284058 24.6304348,4.98578029 24.6304348,5.26102899 C24.6304348,5.53627768 24.4074951,5.75921739 24.1322464,5.75921739 L21.6413043,5.75921739 L21.6413043,10.2427536 L25.6268116,10.2427536 Z M23.1357101,20.7045507 L23.135742,20.7045507 C24.7859971,20.7045507 26.1248725,19.3656435 26.1248725,17.7153884 C26.1248725,16.5060261 25.396258,15.416229 24.2790725,14.9541652 C23.1630667,14.4908261 21.876513,14.7473971 21.0221159,15.6017942 C20.167738,16.4562232 19.9111797,17.7428087 20.374487,18.8587507 C20.8365826,19.9759362 21.9263478,20.7045507 23.1357101,20.7045507 Z M23.1357101,15.7226667 L23.135742,15.7226667 C23.6638377,15.7226667 24.1707496,15.9331652 24.5443797,16.3068145 C24.9180099,16.6804638 25.1284957,17.1873884 25.1284957,17.7154522 C25.1284957,18.521258 24.642742,19.2486162 23.8979623,19.5562464 C23.1531826,19.8651072 22.2962986,19.6944957 21.7271043,19.124058 C21.1566699,18.5548638 20.9860391,17.6979797 21.2949159,16.9532 C21.6025333,16.2083884 22.3299043,15.7226667 23.1357101,15.7226667 Z M23.1357165,18.7117971 C23.3997484,18.7117971 23.6538197,18.6071728 23.8406412,18.4203513 C24.0274626,18.2335426 24.1320806,17.9794649 24.1320806,17.7154267 C24.1320806,17.311902 23.8892197,16.9494696 23.5168139,16.7950296 C23.14444,16.6405768 22.7159916,16.7265299 22.4307791,17.0104957 C22.1468133,17.2956986 22.060873,17.7241246 22.215313,18.0965304 C22.3697594,18.4689299 22.7321855,18.7117971 23.1357101,18.7117971 Z M8.19037681,15.7226667 L8.1904087,15.7226667 C8.71850435,15.7226667 9.22541623,15.9331652 9.59904638,16.3068145 C9.97267652,16.6804638 10.1831623,17.1873884 10.1831623,17.7154522 C10.1831623,18.521258 9.6974087,19.2486162 8.95262899,19.5562464 C8.20784928,19.8651072 7.35096522,19.6944957 6.78177101,19.124058 C6.21133652,18.5548638 6.0407058,17.6979797 6.34958261,16.9532 C6.6572,16.2083884 7.38457101,15.7226667 8.19037681,15.7226667 Z M8.19038319,18.7117971 C8.45441507,18.7117971 8.70848638,18.6071728 8.89530783,18.4203513 C9.08212928,18.2335426 9.18674725,17.9794649 9.18674725,17.7154267 C9.18674725,17.311902 8.94388638,16.9494696 8.57148058,16.7950296 C8.19910667,16.6405768 7.77065826,16.7265299 7.4854458,17.0104957 C7.20148,17.2956986 7.11553971,17.7241246 7.26997971,18.0965304 C7.42442609,18.4689299 7.78685217,18.7117971 8.19037681,18.7117971 Z" id="Combined-Shape"></path>
            </g>
        </g>
    </g>
</svg>
