<svg width="12" height="10" viewBox="0 0 12 10" fill="none" xmlns="http://www.w3.org/2000/svg">
<path d="M11.2181 1.95159C10.8048 2.13351 10.3644 2.25409 9.9052 2.31264C10.3776 2.02965 10.7381 1.58497 10.9076 1.04897C10.4672 1.31244 9.98092 1.49854 9.4627 1.60239C9.04452 1.15562 8.4485 0.878906 7.79829 0.878906C6.53679 0.878906 5.52119 1.90628 5.52119 3.16576C5.52119 3.34698 5.53647 3.52123 5.57398 3.68712C3.67964 3.59442 2.00342 2.68344 0.87737 1.29571C0.68078 1.63794 0.565466 2.02965 0.565466 2.45134C0.565466 3.24313 0.971844 3.94501 1.57759 4.35136C1.2115 4.34439 0.852362 4.23775 0.5481 4.06977C0.5481 4.07674 0.5481 4.0858 0.5481 4.09487C0.5481 5.20588 1.33793 6.12871 2.37367 6.3413C2.1882 6.39218 1.98605 6.41657 1.77626 6.41657C1.63038 6.41657 1.48312 6.40821 1.34488 6.37754C1.64011 7.28294 2.47787 7.94858 3.47402 7.97019C2.69877 8.57867 1.71444 8.94529 0.648826 8.94529C0.461962 8.94529 0.282739 8.93693 0.103516 8.91392C1.11286 9.56701 2.30907 9.93991 3.59906 9.93991C7.79204 9.93991 10.0844 6.45491 10.0844 3.43411C10.0844 3.33304 10.081 3.23546 10.0761 3.13858C10.5283 2.81657 10.9083 2.4144 11.2181 1.95159Z" fill="white"/>
</svg>
