<?xml version="1.0" encoding="UTF-8"?>
<svg width="26px" height="22px" viewBox="0 0 26 22" version="1.1" xmlns="http://www.w3.org/2000/svg" xmlns:xlink="http://www.w3.org/1999/xlink">
    <!-- Generator: Sketch 53.1 (72631) - https://sketchapp.com -->
    <title>Twitter</title>
    <desc>Created with Sketch.</desc>
    <defs>
        <linearGradient x1="0%" y1="84.7222222%" x2="100%" y2="15.2777778%" id="linearGradient-1">
            <stop stop-color="#1480C8" offset="0%"></stop>
            <stop stop-color="#04A3FF" offset="100%"></stop>
        </linearGradient>
    </defs>
    <g id="Symbols" stroke="none" stroke-width="1" fill="none" fill-rule="evenodd" stroke-linejoin="round">
        <g id="Organisms-/-Blog-/-Share" transform="translate(1.000000, -124.000000)" stroke="url(#linearGradient-1)" stroke-width="1.15">
            <g id="UI-/-Elements-/-Share">
                <path d="M23.3380504,125.37037 C22.3858169,125.947712 21.3336181,126.368064 20.2090086,126.593618 C19.3131658,125.612585 18.0328412,125 16.6153846,125 C13.8983793,125 11.6933757,127.260669 11.6933757,130.048699 C11.6933757,130.444701 11.7356687,130.829168 11.8202547,131.198898 C7.72808587,130.988082 4.10049929,128.97988 1.67057379,125.922081 C1.24636211,126.670511 1.00413852,127.538126 1.00413852,128.462771 C1.00413852,130.213379 1.87306758,131.75958 3.19504446,132.665001 C2.38891411,132.640651 1.62828078,132.410611 0.963127119,132.035115 L0.963127119,132.09727 C0.963127119,134.544406 2.66061464,136.585288 4.91496008,137.04793 C4.50228286,137.165834 4.06653673,137.225426 3.61733372,137.225426 C3.30013617,137.225426 2.99062825,137.195309 2.69073238,137.135717 C3.31743786,139.140715 5.13475556,140.601051 7.28977652,140.640138 C5.60510507,141.995386 3.48084266,142.802768 1.17459216,142.802768 C0.777294209,142.802768 0.384481884,142.7797 0,142.733564 C2.17873068,144.163783 4.76821616,145 7.54802019,145 C16.6057726,145 21.5572584,137.307446 21.5572584,130.635653 C21.5572584,130.415866 21.5534136,130.196078 21.5450832,129.980777 C22.5069287,129.268871 23.342536,128.38011 24,127.367679 C23.1182549,127.769448 22.1685846,128.041138 21.1727765,128.162245 C22.1897311,127.538126 22.9702294,126.548763 23.3380504,125.37037" id="Twitter"></path>
            </g>
        </g>
    </g>
</svg>