<?xml version="1.0" encoding="UTF-8"?>
<svg width="26px" height="18px" viewBox="0 0 26 18" version="1.1" xmlns="http://www.w3.org/2000/svg" xmlns:xlink="http://www.w3.org/1999/xlink">
    <!-- Generator: Sketch 53.1 (72631) - https://sketchapp.com -->
    <title>UI / Language / USA</title>
    <desc>Created with Sketch.</desc>
    <g id="Symbols" stroke="none" stroke-width="1" fill="none" fill-rule="evenodd">
        <g id="Organisms-/-Footer" transform="translate(-172.000000, -700.000000)">
            <g id="Footer-#9">
                <g id="Botton-nav" transform="translate(150.000000, 558.000000)">
                    <g id="Atoms-/-Flags-/-USA" transform="translate(22.000000, 142.000000)">
                        <g id="USA@2x" transform="translate(0.000000, -0.000000)">
                            <path d="M2.56338028,17.4346479 L23.7185915,17.4346479 C24.5616599,17.3672496 25.3091433,16.866616 25.6923944,16.1126761 L0.585915493,16.1126761 C0.969834635,16.8676698 1.71896853,17.3684797 2.56338028,17.4346479 Z" id="Shape" fill="#ED5565"></path>
                            <path d="M0.333239437,14.7870423 L0.333239437,15.2777465 C0.365334535,15.5676057 0.449702936,15.8492473 0.582253521,16.1090141 L25.6850704,16.1090141 C25.817621,15.8492473 25.9019894,15.5676057 25.9340845,15.2777465 L25.9340845,14.7870423 L0.333239437,14.7870423 Z" id="Shape" fill="#FFFFFF"></path>
                            <rect id="Rectangle-path" fill="#ED5565" x="0.333239437" y="13.4650704" width="25.604507" height="1.32197183"></rect>
                            <rect id="Rectangle-path" fill="#FFFFFF" x="0.333239437" y="12.1430986" width="25.604507" height="1.32197183"></rect>
                            <rect id="Rectangle-path" fill="#ED5565" x="0.333239437" y="10.8211268" width="25.604507" height="1.32197183"></rect>
                            <rect id="Rectangle-path" fill="#FFFFFF" x="0.333239437" y="9.49915493" width="25.604507" height="1.32197183"></rect>
                            <rect id="Rectangle-path" fill="#ED5565" x="0.333239437" y="8.1771831" width="25.604507" height="1.32197183"></rect>
                            <rect id="Rectangle-path" fill="#FFFFFF" x="0.333239437" y="6.85521127" width="25.604507" height="1.32197183"></rect>
                            <rect id="Rectangle-path" fill="#ED5565" x="0.333239437" y="5.53323944" width="25.604507" height="1.32197183"></rect>
                            <rect id="Rectangle-path" fill="#FFFFFF" x="0.333239437" y="4.20760563" width="25.604507" height="1.32197183"></rect>
                            <rect id="Rectangle-path" fill="#ED5565" x="0.333239437" y="2.8856338" width="25.604507" height="1.32197183"></rect>
                            <path d="M25.9377465,2.8856338 L25.9377465,2.39492958 C25.9060857,2.10381672 25.821706,1.82089677 25.6887324,1.56 L0.585915493,1.56 C0.45294188,1.82089677 0.368562242,2.10381672 0.336901408,2.39492958 L0.336901408,2.8856338 L25.9377465,2.8856338 Z" id="Shape" fill="#FFFFFF"></path>
                            <path d="M23.7149296,0.241690141 L2.56338028,0.241690141 C1.72031191,0.309088462 0.972828539,0.809722039 0.589577465,1.56366197 L25.6923944,1.56366197 C25.3084752,0.808668237 24.5593413,0.307858359 23.7149296,0.241690141 Z" id="Shape" fill="#ED5565"></path>
                            <path d="M12.483662,9.49915493 L12.483662,0.241690141 L2.56338028,0.241690141 C1.40114184,0.334734907 0.468541847,1.23967955 0.34056338,2.39859155 L0.34056338,9.49915493 L12.483662,9.49915493 Z" id="Shape" fill="#4A89DC"></path>
                            <polygon id="Shape" fill="#FFFFFF" points="1.83830986 1.36225352 1.73943662 1.66985915 1.4171831 1.66985915 1.6771831 1.85661972 1.57830986 2.16422535 1.83830986 1.97380282 2.09830986 2.16422535 1.99943662 1.85661972 2.25943662 1.66985915 1.9371831 1.66985915"></polygon>
                            <polygon id="Shape" fill="#FFFFFF" points="1.83830986 2.91492958 1.73943662 3.22253521 1.4171831 3.22253521 1.6771831 3.41295775 1.57830986 3.71690141 1.83830986 3.53014085 2.09830986 3.71690141 1.99943662 3.41295775 2.25943662 3.22253521 1.9371831 3.22253521"></polygon>
                            <polygon id="Shape" fill="#FFFFFF" points="1.83830986 4.46760563 1.73943662 4.77521127 1.4171831 4.77521127 1.6771831 4.9656338 1.57830986 5.27323944 1.83830986 5.0828169 2.09830986 5.27323944 1.99943662 4.9656338 2.25943662 4.77521127 1.9371831 4.77521127"></polygon>
                            <polygon id="Shape" fill="#FFFFFF" points="1.83830986 6.02394366 1.73943662 6.32788732 1.4171831 6.32788732 1.6771831 6.51830986 1.57830986 6.82591549 1.83830986 6.63549296 2.09830986 6.82591549 1.99943662 6.51830986 2.25943662 6.32788732 1.9371831 6.32788732"></polygon>
                            <polygon id="Shape" fill="#FFFFFF" points="1.9371831 7.88056338 1.83830986 7.57661972 1.73943662 7.88056338 1.4171831 7.88056338 1.6771831 8.07098592 1.57830986 8.37859155 1.83830986 8.18816901 2.09830986 8.37859155 1.99943662 8.07098592 2.25943662 7.88056338"></polygon>
                            <polygon id="Shape" fill="#FFFFFF" points="2.75014085 2.13859155 2.65126761 2.44619718 2.32901408 2.44619718 2.58901408 2.63661972 2.49014085 2.94056338 2.75014085 2.75014085 3.01380282 2.94056338 2.91492958 2.63661972 3.17492958 2.44619718 2.85267606 2.44619718"></polygon>
                            <polygon id="Shape" fill="#FFFFFF" points="2.75014085 3.69126761 2.65126761 3.99887324 2.32901408 3.99887324 2.58901408 4.18929577 2.49014085 4.49323944 2.75014085 4.30647887 3.01380282 4.49323944 2.91492958 4.18929577 3.17492958 3.99887324 2.85267606 3.99887324"></polygon>
                            <polygon id="Shape" fill="#FFFFFF" points="2.75014085 5.24760563 2.65126761 5.5515493 2.32901408 5.5515493 2.58901408 5.74197183 2.49014085 6.04957746 2.75014085 5.85915493 3.01380282 6.04957746 2.91492958 5.74197183 3.17492958 5.5515493 2.85267606 5.5515493"></polygon>
                            <polygon id="Shape" fill="#FFFFFF" points="2.85267606 7.10422535 2.75014085 6.80028169 2.65126761 7.10422535 2.32901408 7.10422535 2.58901408 7.29464789 2.49014085 7.60225352 2.75014085 7.41183099 3.01380282 7.60225352 2.91492958 7.29464789 3.17492958 7.10422535"></polygon>
                            <polygon id="Shape" fill="#FFFFFF" points="3.6656338 1.36225352 3.56676056 1.66985915 3.24450704 1.66985915 3.50450704 1.85661972 3.4056338 2.16422535 3.6656338 1.97380282 3.9256338 2.16422535 3.82676056 1.85661972 4.08676056 1.66985915 3.76450704 1.66985915"></polygon>
                            <polygon id="Shape" fill="#FFFFFF" points="3.6656338 2.91492958 3.56676056 3.22253521 3.24450704 3.22253521 3.50450704 3.41295775 3.4056338 3.71690141 3.6656338 3.53014085 3.9256338 3.71690141 3.82676056 3.41295775 4.08676056 3.22253521 3.76450704 3.22253521"></polygon>
                            <polygon id="Shape" fill="#FFFFFF" points="3.6656338 4.46760563 3.56676056 4.77521127 3.24450704 4.77521127 3.50450704 4.9656338 3.4056338 5.27323944 3.6656338 5.0828169 3.9256338 5.27323944 3.82676056 4.9656338 4.08676056 4.77521127 3.76450704 4.77521127"></polygon>
                            <polygon id="Shape" fill="#FFFFFF" points="3.6656338 6.02394366 3.56676056 6.32788732 3.24450704 6.32788732 3.50450704 6.51830986 3.4056338 6.82591549 3.6656338 6.63549296 3.9256338 6.82591549 3.82676056 6.51830986 4.08676056 6.32788732 3.76450704 6.32788732"></polygon>
                            <polygon id="Shape" fill="#FFFFFF" points="3.76450704 7.88056338 3.6656338 7.57661972 3.56676056 7.88056338 3.24450704 7.88056338 3.50450704 8.07098592 3.4056338 8.37859155 3.6656338 8.18816901 3.9256338 8.37859155 3.82676056 8.07098592 4.08676056 7.88056338"></polygon>
                            <polygon id="Shape" fill="#FFFFFF" points="4.57746479 2.13859155 4.47859155 2.44619718 4.15633803 2.44619718 4.41633803 2.63661972 4.31746479 2.94056338 4.57746479 2.75014085 4.84112676 2.94056338 4.74225352 2.63661972 5.00225352 2.44619718 4.68 2.44619718"></polygon>
                            <polygon id="Shape" fill="#FFFFFF" points="4.57746479 3.69126761 4.47859155 3.99887324 4.15633803 3.99887324 4.41633803 4.18929577 4.31746479 4.49323944 4.57746479 4.30647887 4.84112676 4.49323944 4.74225352 4.18929577 5.00225352 3.99887324 4.68 3.99887324"></polygon>
                            <polygon id="Shape" fill="#FFFFFF" points="4.57746479 5.24760563 4.47859155 5.5515493 4.15633803 5.5515493 4.41633803 5.74197183 4.31746479 6.04957746 4.57746479 5.85915493 4.84112676 6.04957746 4.74225352 5.74197183 5.00225352 5.5515493 4.68 5.5515493"></polygon>
                            <polygon id="Shape" fill="#FFFFFF" points="4.68 7.10422535 4.57746479 6.80028169 4.47859155 7.10422535 4.15633803 7.10422535 4.41633803 7.29464789 4.31746479 7.60225352 4.57746479 7.41183099 4.84112676 7.60225352 4.74225352 7.29464789 5.00225352 7.10422535"></polygon>
                            <polygon id="Shape" fill="#FFFFFF" points="5.49295775 1.36225352 5.39408451 1.66985915 5.07183099 1.66985915 5.33183099 1.85661972 5.23295775 2.16422535 5.49295775 1.97380282 5.75295775 2.16422535 5.65408451 1.85661972 5.91408451 1.66985915 5.59183099 1.66985915"></polygon>
                            <polygon id="Shape" fill="#FFFFFF" points="5.49295775 2.91492958 5.39408451 3.22253521 5.07183099 3.22253521 5.33183099 3.41295775 5.23295775 3.71690141 5.49295775 3.53014085 5.75295775 3.71690141 5.65408451 3.41295775 5.91408451 3.22253521 5.59183099 3.22253521"></polygon>
                            <polygon id="Shape" fill="#FFFFFF" points="5.49295775 4.46760563 5.39408451 4.77521127 5.07183099 4.77521127 5.33183099 4.9656338 5.23295775 5.27323944 5.49295775 5.0828169 5.75295775 5.27323944 5.65408451 4.9656338 5.91408451 4.77521127 5.59183099 4.77521127"></polygon>
                            <polygon id="Shape" fill="#FFFFFF" points="5.49295775 6.02394366 5.39408451 6.32788732 5.07183099 6.32788732 5.33183099 6.51830986 5.23295775 6.82591549 5.49295775 6.63549296 5.75295775 6.82591549 5.65408451 6.51830986 5.91408451 6.32788732 5.59183099 6.32788732"></polygon>
                            <polygon id="Shape" fill="#FFFFFF" points="5.59183099 7.88056338 5.49295775 7.57661972 5.39408451 7.88056338 5.07183099 7.88056338 5.33183099 8.07098592 5.23295775 8.37859155 5.49295775 8.18816901 5.75295775 8.37859155 5.65408451 8.07098592 5.91408451 7.88056338"></polygon>
                            <polygon id="Shape" fill="#FFFFFF" points="6.40478873 2.13859155 6.30591549 2.44619718 5.98366197 2.44619718 6.24366197 2.63661972 6.14478873 2.94056338 6.40478873 2.75014085 6.6684507 2.94056338 6.56591549 2.63661972 6.82957746 2.44619718 6.50732394 2.44619718"></polygon>
                            <polygon id="Shape" fill="#FFFFFF" points="6.40478873 3.69126761 6.30591549 3.99887324 5.98366197 3.99887324 6.24366197 4.18929577 6.14478873 4.49323944 6.40478873 4.30647887 6.6684507 4.49323944 6.56591549 4.18929577 6.82957746 3.99887324 6.50732394 3.99887324"></polygon>
                            <polygon id="Shape" fill="#FFFFFF" points="6.40478873 5.24760563 6.30591549 5.5515493 5.98366197 5.5515493 6.24366197 5.74197183 6.14478873 6.04957746 6.40478873 5.85915493 6.6684507 6.04957746 6.56591549 5.74197183 6.82957746 5.5515493 6.50732394 5.5515493"></polygon>
                            <polygon id="Shape" fill="#FFFFFF" points="6.50732394 7.10422535 6.40478873 6.80028169 6.30591549 7.10422535 5.98366197 7.10422535 6.24366197 7.29464789 6.14478873 7.60225352 6.40478873 7.41183099 6.6684507 7.60225352 6.56591549 7.29464789 6.82957746 7.10422535"></polygon>
                            <polygon id="Shape" fill="#FFFFFF" points="7.32028169 1.36225352 7.22140845 1.66985915 6.89915493 1.66985915 7.15915493 1.85661972 7.06028169 2.16422535 7.32028169 1.97380282 7.58028169 2.16422535 7.48140845 1.85661972 7.74140845 1.66985915 7.41915493 1.66985915"></polygon>
                            <polygon id="Shape" fill="#FFFFFF" points="7.32028169 2.91492958 7.22140845 3.22253521 6.89915493 3.22253521 7.15915493 3.41295775 7.06028169 3.71690141 7.32028169 3.53014085 7.58028169 3.71690141 7.48140845 3.41295775 7.74140845 3.22253521 7.41915493 3.22253521"></polygon>
                            <polygon id="Shape" fill="#FFFFFF" points="7.32028169 4.46760563 7.22140845 4.77521127 6.89915493 4.77521127 7.15915493 4.9656338 7.06028169 5.27323944 7.32028169 5.0828169 7.58028169 5.27323944 7.48140845 4.9656338 7.74140845 4.77521127 7.41915493 4.77521127"></polygon>
                            <polygon id="Shape" fill="#FFFFFF" points="7.32028169 6.02394366 7.22140845 6.32788732 6.89915493 6.32788732 7.15915493 6.51830986 7.06028169 6.82591549 7.32028169 6.63549296 7.58028169 6.82591549 7.48140845 6.51830986 7.74140845 6.32788732 7.41915493 6.32788732"></polygon>
                            <polygon id="Shape" fill="#FFFFFF" points="7.41915493 7.88056338 7.32028169 7.57661972 7.22140845 7.88056338 6.89915493 7.88056338 7.15915493 8.07098592 7.06028169 8.37859155 7.32028169 8.18816901 7.58028169 8.37859155 7.48140845 8.07098592 7.74140845 7.88056338"></polygon>
                            <polygon id="Shape" fill="#FFFFFF" points="8.23211268 2.13859155 8.13323944 2.44619718 7.81098592 2.44619718 8.07098592 2.63661972 7.97211268 2.94056338 8.23211268 2.75014085 8.49577465 2.94056338 8.39323944 2.63661972 8.65690141 2.44619718 8.33464789 2.44619718"></polygon>
                            <polygon id="Shape" fill="#FFFFFF" points="8.23211268 3.69126761 8.13323944 3.99887324 7.81098592 3.99887324 8.07098592 4.18929577 7.97211268 4.49323944 8.23211268 4.30647887 8.49577465 4.49323944 8.39323944 4.18929577 8.65690141 3.99887324 8.33464789 3.99887324"></polygon>
                            <polygon id="Shape" fill="#FFFFFF" points="8.23211268 5.24760563 8.13323944 5.5515493 7.81098592 5.5515493 8.07098592 5.74197183 7.97211268 6.04957746 8.23211268 5.85915493 8.49577465 6.04957746 8.39323944 5.74197183 8.65690141 5.5515493 8.33464789 5.5515493"></polygon>
                            <polygon id="Shape" fill="#FFFFFF" points="8.33464789 7.10422535 8.23211268 6.80028169 8.13323944 7.10422535 7.81098592 7.10422535 8.07098592 7.29464789 7.97211268 7.60225352 8.23211268 7.41183099 8.49577465 7.60225352 8.39323944 7.29464789 8.65690141 7.10422535"></polygon>
                            <polygon id="Shape" fill="#FFFFFF" points="9.14760563 1.36225352 9.04873239 1.66985915 8.72647887 1.66985915 8.98647887 1.85661972 8.88760563 2.16422535 9.14760563 1.97380282 9.40760563 2.16422535 9.30873239 1.85661972 9.56873239 1.66985915 9.24647887 1.66985915"></polygon>
                            <polygon id="Shape" fill="#FFFFFF" points="9.14760563 2.91492958 9.04873239 3.22253521 8.72647887 3.22253521 8.98647887 3.41295775 8.88760563 3.71690141 9.14760563 3.53014085 9.40760563 3.71690141 9.30873239 3.41295775 9.56873239 3.22253521 9.24647887 3.22253521"></polygon>
                            <polygon id="Shape" fill="#FFFFFF" points="9.14760563 4.46760563 9.04873239 4.77521127 8.72647887 4.77521127 8.98647887 4.9656338 8.88760563 5.27323944 9.14760563 5.0828169 9.40760563 5.27323944 9.30873239 4.9656338 9.56873239 4.77521127 9.24647887 4.77521127"></polygon>
                            <polygon id="Shape" fill="#FFFFFF" points="9.14760563 6.02394366 9.04873239 6.32788732 8.72647887 6.32788732 8.98647887 6.51830986 8.88760563 6.82591549 9.14760563 6.63549296 9.40760563 6.82591549 9.30873239 6.51830986 9.56873239 6.32788732 9.24647887 6.32788732"></polygon>
                            <polygon id="Shape" fill="#FFFFFF" points="9.24647887 7.88056338 9.14760563 7.57661972 9.04873239 7.88056338 8.72647887 7.88056338 8.98647887 8.07098592 8.88760563 8.37859155 9.14760563 8.18816901 9.40760563 8.37859155 9.30873239 8.07098592 9.56873239 7.88056338"></polygon>
                            <polygon id="Shape" fill="#FFFFFF" points="10.0594366 2.13859155 9.96056338 2.44619718 9.63830986 2.44619718 9.89830986 2.63661972 9.79943662 2.94056338 10.0594366 2.75014085 10.3230986 2.94056338 10.2205634 2.63661972 10.4842254 2.44619718 10.1619718 2.44619718"></polygon>
                            <polygon id="Shape" fill="#FFFFFF" points="10.0594366 3.69126761 9.96056338 3.99887324 9.63830986 3.99887324 9.89830986 4.18929577 9.79943662 4.49323944 10.0594366 4.30647887 10.3230986 4.49323944 10.2205634 4.18929577 10.4842254 3.99887324 10.1619718 3.99887324"></polygon>
                            <polygon id="Shape" fill="#FFFFFF" points="10.0594366 5.24760563 9.96056338 5.5515493 9.63830986 5.5515493 9.89830986 5.74197183 9.79943662 6.04957746 10.0594366 5.85915493 10.3230986 6.04957746 10.2205634 5.74197183 10.4842254 5.5515493 10.1619718 5.5515493"></polygon>
                            <polygon id="Shape" fill="#FFFFFF" points="10.1619718 7.10422535 10.0594366 6.80028169 9.96056338 7.10422535 9.63830986 7.10422535 9.89830986 7.29464789 9.79943662 7.60225352 10.0594366 7.41183099 10.3230986 7.60225352 10.2205634 7.29464789 10.4842254 7.10422535"></polygon>
                            <polygon id="Shape" fill="#FFFFFF" points="10.8138028 1.85661972 10.7149296 2.16422535 10.9749296 1.97380282 11.2349296 2.16422535 11.1360563 1.85661972 11.3960563 1.66985915 11.0738028 1.66985915 10.9749296 1.36225352 10.8760563 1.66985915 10.5538028 1.66985915"></polygon>
                            <polygon id="Shape" fill="#FFFFFF" points="10.9749296 2.91492958 10.8760563 3.22253521 10.5538028 3.22253521 10.8138028 3.41295775 10.7149296 3.71690141 10.9749296 3.53014085 11.2349296 3.71690141 11.1360563 3.41295775 11.3960563 3.22253521 11.0738028 3.22253521"></polygon>
                            <polygon id="Shape" fill="#FFFFFF" points="10.9749296 4.46760563 10.8760563 4.77521127 10.5538028 4.77521127 10.8138028 4.9656338 10.7149296 5.27323944 10.9749296 5.0828169 11.2349296 5.27323944 11.1360563 4.9656338 11.3960563 4.77521127 11.0738028 4.77521127"></polygon>
                            <polygon id="Shape" fill="#FFFFFF" points="10.9749296 6.02394366 10.8760563 6.32788732 10.5538028 6.32788732 10.8138028 6.51830986 10.7149296 6.82591549 10.9749296 6.63549296 11.2349296 6.82591549 11.1360563 6.51830986 11.3960563 6.32788732 11.0738028 6.32788732"></polygon>
                            <polygon id="Shape" fill="#FFFFFF" points="11.0738028 7.88056338 10.9749296 7.57661972 10.8760563 7.88056338 10.5538028 7.88056338 10.8138028 8.07098592 10.7149296 8.37859155 10.9749296 8.18816901 11.2349296 8.37859155 11.1360563 8.07098592 11.3960563 7.88056338"></polygon>
                        </g>
                    </g>
                </g>
            </g>
        </g>
    </g>
</svg>